<?xml version="1.0" standalone="no"?>
<!DOCTYPE svg PUBLIC "-//W3C//DTD SVG 20010904//EN"
 "http://www.w3.org/TR/2001/REC-SVG-20010904/DTD/svg10.dtd">
<svg version="1.0" xmlns="http://www.w3.org/2000/svg"
 width="1024.000000pt" height="1024.000000pt" viewBox="0 0 1024.000000 1024.000000"
 preserveAspectRatio="xMidYMid meet">
<metadata>
Created by potrace 1.11, written by Peter Selinger 2001-2013
</metadata>
<g transform="translate(0.000000,1024.000000) scale(0.100000,-0.100000)"
fill="#000000" stroke="none">
<path d="M0 6111 l0 -4129 83 -6 c88 -6 1180 -31 1235 -29 17 1 39 3 47 4 22
3 58 66 52 89 -3 13 0 20 9 20 8 0 14 5 14 10 0 6 5 10 10 10 6 0 10 -9 10
-20 0 -11 5 -20 10 -20 6 0 10 -7 10 -16 0 -8 4 -12 10 -9 22 14 8 -42 -19
-73 -24 -29 -27 -37 -17 -58 l11 -24 3 25 c2 14 8 25 13 25 5 0 9 -8 7 -17 -2
-12 2 -17 12 -14 8 2 24 6 35 8 14 4 10 -2 -12 -19 -26 -19 -30 -27 -20 -37 9
-10 7 -17 -12 -32 -28 -23 -15 -25 25 -4 32 17 90 20 99 6 3 -5 -5 -17 -17
-25 -32 -23 -10 -20 36 5 45 24 59 18 26 -11 -13 -11 -20 -23 -17 -26 8 -8 96
32 122 56 25 23 73 42 79 31 3 -4 -6 -13 -21 -20 -14 -6 -22 -15 -18 -19 8 -9
55 -10 55 -2 0 10 82 35 102 32 10 -2 18 0 18 5 0 4 20 8 45 9 25 0 45 0 45
-2 0 -1 -17 -13 -37 -25 -20 -13 -32 -24 -25 -27 6 -2 21 3 34 11 14 9 37 13
59 10 30 -4 36 -8 32 -24 -4 -14 0 -19 14 -19 10 0 24 -5 31 -12 8 -8 12 -8
12 -1 0 6 13 13 29 15 19 3 27 0 24 -8 -2 -6 3 -14 12 -18 10 -3 15 -12 12
-20 -5 -13 25 -30 46 -27 4 1 7 -10 7 -24 0 -14 9 -34 21 -46 19 -19 22 -19
39 -4 16 15 18 15 24 0 3 -9 6 -25 6 -35 0 -10 7 -20 15 -24 8 -3 15 -12 15
-21 0 -9 8 -14 22 -12 15 1 26 -6 35 -23 7 -14 19 -24 27 -22 20 4 30 -16 17
-32 -15 -17 -1 -29 16 -14 17 14 30 -1 40 -44 3 -16 9 -28 14 -28 5 0 9 -6 9
-12 0 -7 8 -22 17 -33 13 -16 15 -17 10 -2 -4 9 -2 17 3 17 6 0 10 6 10 14 0
8 4 17 9 20 5 4 7 -8 5 -26 l-5 -33 25 30 c14 17 25 26 26 22 0 -5 -7 -15 -15
-23 -19 -19 -19 -34 -1 -34 7 0 20 -10 29 -22 l15 -23 31 35 c16 19 30 43 31
53 0 9 4 17 8 17 5 0 6 -14 4 -32 -4 -26 -2 -30 12 -25 9 4 16 1 16 -5 0 -6 3
-8 7 -5 3 4 12 2 20 -4 10 -9 13 -8 13 2 1 27 29 -36 30 -65 0 -22 3 -27 11
-19 8 8 20 8 34 3 20 -8 25 -4 39 25 9 18 17 46 19 62 1 15 19 56 40 89 41 69
49 98 17 69 -19 -17 -21 -17 -40 0 -11 10 -20 13 -20 7 0 -7 6 -12 13 -12 8 0
7 -3 -3 -10 -12 -7 -17 -3 -22 17 -4 16 -3 32 4 40 6 7 8 16 5 20 -9 9 -34
-15 -51 -47 -12 -24 -12 -28 0 -23 8 3 14 9 14 14 0 5 4 9 9 9 12 0 -24 -69
-48 -91 -46 -44 -70 1 -34 62 15 25 15 31 4 38 -7 5 -11 17 -7 27 3 11 8 33
10 49 12 81 30 154 38 149 4 -3 11 3 14 13 3 10 12 30 20 45 8 14 14 35 14 45
0 10 7 29 16 41 9 13 13 26 10 29 -8 9 -54 -36 -62 -59 -5 -17 -35 -27 -33
-10 7 43 -21 61 -58 36 -35 -22 -36 -14 -2 24 32 36 41 40 32 15 -5 -14 -1
-13 19 5 13 12 29 22 35 22 6 0 17 7 24 17 13 15 10 16 -26 9 -83 -15 -115
-27 -141 -56 -35 -36 -49 -29 -28 13 12 21 13 32 5 35 -6 2 -11 11 -11 21 0 9
-5 22 -12 29 -9 9 -9 15 0 24 7 7 12 9 12 5 0 -12 36 25 49 51 16 30 -3 29
-51 -3 -20 -14 -39 -25 -42 -25 -16 0 -2 28 32 69 67 79 80 121 27 87 -14 -9
-25 -12 -25 -7 0 5 5 13 10 16 17 10 12 38 -6 31 -12 -4 -14 -1 -9 14 8 25
-19 38 -40 20 -14 -11 -14 -10 -6 13 6 15 8 33 5 41 -3 8 3 19 15 26 27 14 27
30 1 30 -11 0 -20 -6 -20 -13 0 -7 -14 -25 -31 -40 -18 -16 -29 -21 -25 -11 3
8 6 27 6 40 0 21 3 24 21 19 19 -6 21 -4 17 19 -6 30 7 33 39 11 16 -12 22
-12 26 -2 4 9 6 8 6 -2 1 -10 7 -9 29 4 26 18 27 18 11 -1 -24 -29 -34 -48
-21 -40 8 4 12 0 12 -11 0 -10 -9 -24 -20 -31 -11 -7 -20 -19 -20 -27 0 -22
13 -18 34 10 11 14 25 24 33 21 7 -3 13 -1 13 5 0 14 39 54 46 47 3 -4 -3 -15
-13 -25 -10 -10 -18 -27 -17 -38 3 -59 4 -66 16 -59 8 5 9 2 5 -9 -19 -46 -17
-50 7 -22 14 17 25 37 26 46 0 9 7 19 15 23 16 6 21 36 5 36 -5 0 -7 7 -3 16
5 13 7 13 14 2 6 -9 9 -7 9 10 0 12 6 22 14 22 10 0 13 -14 11 -56 -2 -53 -1
-55 22 -49 17 4 23 1 23 -11 0 -16 1 -16 18 -1 11 10 26 14 40 10 26 -6 26 -5
8 -48 -9 -21 -11 -37 -5 -40 5 -4 7 -11 4 -16 -4 -5 -2 -9 4 -9 5 0 13 5 16
10 14 22 23 8 13 -20 -14 -43 -5 -64 22 -48 11 7 20 18 20 24 0 6 8 19 19 28
18 16 18 15 10 -31 -10 -51 -5 -78 11 -68 10 6 12 -1 13 -42 0 -21 1 -21 24
-6 29 19 42 10 20 -15 -27 -30 -20 -35 18 -13 41 24 44 20 10 -17 -36 -39 -33
-53 6 -32 24 14 26 -6 2 -32 -15 -17 -15 -18 5 -18 27 0 58 -30 42 -40 -8 -5
-8 -10 -2 -14 5 -3 12 1 16 9 3 8 10 15 16 15 8 0 8 -6 0 -20 -6 -11 -9 -20
-8 -20 2 0 18 4 36 9 25 8 32 7 32 -4 0 -28 28 -42 81 -41 62 1 77 21 30 39
-17 6 -31 17 -31 23 0 7 -5 14 -10 16 -6 2 -7 14 -1 35 7 26 6 35 -9 48 -15
14 -17 21 -7 35 9 15 7 23 -8 40 -10 11 -15 23 -12 26 3 4 0 19 -8 34 -10 20
-11 30 -3 38 8 8 8 15 -2 26 -21 26 -3 104 31 138 34 34 36 44 10 51 -13 3
-20 17 -24 47 -7 55 5 85 43 105 16 8 30 20 30 25 0 6 5 10 12 10 14 0 68 50
68 63 0 5 -7 4 -15 -3 -12 -10 -15 -9 -15 4 0 9 7 30 15 45 13 26 13 30 -1 42
-8 7 -14 24 -12 38 2 21 -1 25 -17 23 -11 -2 -17 -1 -13 4 4 4 3 13 -3 20 -6
7 -12 54 -14 104 -2 50 -8 96 -14 104 -6 7 -8 15 -5 19 5 5 -3 58 -22 145 -3
16 -10 22 -19 18 -23 -8 -19 52 5 92 11 18 20 45 20 60 l-1 27 -28 -35 c-32
-38 -54 -36 -27 2 23 33 20 43 -9 24 -24 -16 -25 -16 -21 11 2 16 9 41 15 57
14 34 8 44 -14 26 -14 -12 -15 -10 -9 16 l7 29 -27 -25 -28 -25 8 30 c4 17 15
49 25 73 15 35 16 42 4 42 -8 0 -18 8 -23 18 -10 19 -9 113 2 130 7 12 -19 23
-38 16 -12 -5 -13 0 -4 29 13 44 5 69 -19 60 -16 -6 -16 -4 2 18 36 43 66 89
57 89 -4 0 -13 -5 -20 -12 -7 -7 -12 -8 -12 -4 0 5 -6 3 -14 -3 -19 -16 -30 2
-20 32 18 55 2 82 -33 54 -9 -6 -13 -6 -13 1 0 6 12 20 27 32 17 13 23 24 16
28 -6 4 -14 22 -18 39 -6 29 -4 32 11 26 12 -4 15 -3 10 5 -4 6 0 25 9 41 8
17 15 39 15 49 0 11 6 22 13 25 7 3 19 23 27 46 7 23 19 46 27 52 21 18 15 37
-12 37 -14 0 -28 2 -31 4 -12 13 21 63 81 125 36 38 65 71 65 75 0 10 2 10
-45 -7 -22 -8 -52 -14 -68 -15 l-27 0 27 31 c16 17 39 36 53 42 21 9 22 11 7
14 -14 4 -16 8 -6 19 6 8 17 14 24 14 18 0 39 27 24 32 -6 2 10 20 37 41 38
30 43 37 26 37 -25 0 -30 28 -7 36 18 7 60 78 69 116 5 22 3 28 -10 28 -14 0
-16 8 -10 54 5 46 3 57 -11 64 -15 9 -16 12 0 35 13 20 14 32 6 61 -6 20 -7
41 -4 46 3 6 -1 7 -9 4 -9 -3 -16 -1 -16 5 0 6 -6 9 -13 7 -6 -1 -9 -1 -5 1 5
3 8 13 8 24 0 10 9 36 20 56 23 43 26 89 8 96 -10 3 -10 7 -1 17 6 7 9 19 6
26 -3 8 0 20 6 28 8 10 8 16 -4 26 -17 14 -20 66 -5 75 5 3 10 30 10 58 0 31
6 62 15 74 10 15 12 24 5 28 -7 4 -7 11 -2 18 14 18 23 65 14 71 -12 7 -5 65
13 108 8 21 16 50 17 65 1 16 8 36 16 45 10 12 15 43 16 93 0 41 4 75 9 75 4
0 7 8 7 18 0 11 11 24 25 30 25 11 34 32 15 32 -13 0 -13 37 0 45 6 4 9 12 8
19 -3 13 31 87 45 97 5 4 3 16 -5 28 -11 19 -11 24 2 34 16 12 21 69 8 82 -4
4 -18 -16 -32 -44 -15 -28 -28 -51 -30 -51 -7 0 15 72 37 124 15 36 18 51 9
54 -18 6 -15 23 9 49 23 24 25 22 -27 38 -8 3 -13 9 -10 14 3 5 -1 14 -9 21
-7 6 -11 18 -8 26 4 10 0 12 -13 7 -14 -5 -16 -3 -9 13 5 10 9 30 9 44 0 14 5
28 11 32 6 5 5 12 -3 20 -10 10 -15 10 -22 -2 -5 -8 -12 -11 -16 -7 -4 3 5 23
20 42 28 37 29 65 1 65 -24 0 -18 38 14 78 16 20 37 62 47 92 10 30 21 60 26
65 6 10 9 38 8 100 0 11 0 33 1 49 0 15 -7 36 -17 47 -14 15 -14 21 -4 34 7 8
10 24 7 34 -3 11 2 29 10 40 8 12 12 25 8 31 -8 13 21 80 47 107 15 17 19 30
15 52 -5 23 -1 35 14 49 12 12 17 26 13 35 -4 11 5 27 25 47 25 26 29 35 21
55 -12 33 -4 52 26 59 14 4 24 14 24 25 0 17 37 41 64 41 8 0 16 -7 20 -15 9
-24 60 -18 90 10 15 14 32 25 39 25 7 0 20 7 30 14 23 18 13 68 -12 64 -25 -4
-40 10 -34 32 4 13 14 20 29 20 21 0 24 3 18 28 -6 23 -56 82 -70 82 -3 0 -12
7 -20 15 -8 8 -23 19 -32 25 -15 9 -14 13 13 35 18 15 43 25 61 25 29 0 74 30
74 50 0 23 19 7 25 -20 8 -38 66 -86 114 -95 71 -14 108 -15 132 -6 29 11 21
15 -66 32 -47 9 -67 19 -93 47 -31 32 -33 40 -27 76 11 73 91 177 110 145 5
-7 11 -6 21 2 11 9 18 7 34 -11 13 -15 20 -18 20 -9 0 11 2 12 9 1 4 -8 12
-14 17 -15 5 -1 7 -6 5 -12 -8 -23 -3 -113 8 -133 16 -30 36 -19 62 34 16 35
20 54 14 89 -7 50 4 69 47 80 38 10 93 -27 131 -87 12 -20 14 -33 7 -59 -12
-42 -6 -47 28 -22 23 17 27 29 30 74 3 63 -23 121 -80 176 -39 38 -145 78
-228 87 -30 3 -69 9 -87 12 -27 5 -32 3 -35 -18 -2 -16 -13 -26 -36 -33 -29
-8 -32 -12 -26 -40 5 -28 2 -32 -29 -44 -32 -13 -34 -17 -26 -38 5 -13 9 -28
9 -33 0 -8 -48 -25 -62 -22 -5 1 -8 -5 -8 -13 0 -9 -9 -15 -24 -15 -16 0 -27
-7 -31 -19 -4 -12 -12 -18 -21 -14 -9 3 -14 -1 -14 -12 0 -14 -7 -16 -35 -13
-23 3 -35 0 -35 -8 0 -24 -30 -44 -56 -38 -17 4 -29 1 -37 -10 -7 -10 -43 -23
-82 -31 -75 -16 -80 -14 -91 35 -12 57 -27 107 -39 135 -40 89 -70 281 -81
531 -10 221 14 302 118 407 l57 58 86 -2 c70 -1 95 -6 129 -25 29 -16 46 -20
56 -14 21 14 30 12 30 -5 0 -8 -6 -16 -12 -16 -7 -1 9 -5 36 -10 27 -4 52 -11
55 -16 11 -15 45 -38 37 -25 -5 8 1 12 18 12 26 0 39 -29 14 -31 -7 0 2 -5 20
-10 17 -5 32 -16 32 -24 0 -8 8 -15 18 -15 14 0 17 -10 19 -58 1 -63 26 -137
42 -128 5 4 17 -4 25 -16 9 -12 16 -19 16 -14 0 5 7 3 15 -4 8 -7 12 -16 9
-21 -3 -5 0 -9 5 -9 6 0 11 -7 11 -15 0 -9 12 -20 26 -25 32 -13 44 -13 44 0
0 6 -7 10 -15 10 -8 0 -15 6 -15 14 0 7 -16 31 -36 52 -37 40 -74 93 -74 107
0 12 48 8 60 -5 6 -7 33 -49 59 -92 45 -77 73 -107 86 -94 3 3 10 178 15 389
5 211 11 457 14 547 l5 162 -49 0 -50 0 0 -57 c0 -32 -1 -179 -1 -328 0 -263
-11 -390 -35 -390 -38 2 -74 19 -74 36 0 10 -7 19 -15 19 -30 0 -84 41 -105
79 -11 21 -40 29 -40 11 0 -5 -4 -10 -9 -10 -13 0 -33 64 -26 82 4 10 -3 23
-20 35 -70 50 -105 104 -105 164 0 32 -3 39 -20 39 -17 0 -20 7 -20 45 0 33 5
50 20 62 11 10 20 24 20 33 0 8 37 52 82 97 l83 83 -2203 0 -2202 0 0 -4129z
m4640 2474 c0 -25 -14 -34 -24 -16 -8 12 3 41 15 41 5 0 9 -11 9 -25z m-670
-175 c0 -5 -5 -10 -11 -10 -5 0 -7 5 -4 10 3 6 8 10 11 10 2 0 4 -4 4 -10z
m-43 -114 c-1 -23 -5 -32 -14 -29 -17 7 -17 50 0 56 6 3 13 6 14 6 0 1 1 -14
0 -33z m-1192 -4206 c3 -5 -1 -10 -10 -10 -9 0 -13 5 -10 10 3 6 8 10 10 10 2
0 7 -4 10 -10z m-72 -780 c-6 -21 -52 -64 -60 -56 -8 7 7 45 23 61 22 22 43
19 37 -5z m214 -142 c-3 -8 -6 -5 -6 6 -1 11 2 17 5 13 3 -3 4 -12 1 -19z
m-257 -8 c0 -5 -5 -10 -11 -10 -5 0 -7 5 -4 10 3 6 8 10 11 10 2 0 4 -4 4 -10z
m22 -72 c-7 -7 -12 -8 -12 -2 0 6 3 14 7 17 3 4 9 5 12 2 2 -3 -1 -11 -7 -17z
m-402 -154 c0 -8 -4 -12 -10 -9 -5 3 -10 10 -10 16 0 5 5 9 10 9 6 0 10 -7 10
-16z m460 -33 c0 -6 -4 -13 -10 -16 -5 -3 -10 1 -10 9 0 9 5 16 10 16 6 0 10
-4 10 -9z m-110 -221 c0 -5 -5 -10 -11 -10 -5 0 -7 5 -4 10 3 6 8 10 11 10 2
0 4 -4 4 -10z m57 -146 c-3 -3 -12 -4 -19 -1 -8 3 -5 6 6 6 11 1 17 -2 13 -5z
m202 -47 c-2 -1 -12 -9 -22 -16 -15 -12 -17 -12 -11 3 3 9 13 16 22 16 8 0 13
-1 11 -3z m-139 -37 c0 -5 -4 -10 -10 -10 -5 0 -10 5 -10 10 0 6 5 10 10 10 6
0 10 -4 10 -10z m225 -59 c-3 -6 -14 -11 -23 -11 -15 1 -15 2 2 15 21 16 32
13 21 -4z m-1305 -241 c0 -5 -7 -10 -16 -10 -8 0 -12 5 -9 10 3 6 10 10 16 10
5 0 9 -4 9 -10z m-40 -14 c0 -16 -27 -29 -42 -20 -6 4 -1 12 13 20 30 17 29
17 29 0z m-60 -20 c0 -11 -19 -15 -25 -6 -3 5 1 10 9 10 9 0 16 -2 16 -4z
m100 -81 c0 -8 -9 -15 -20 -15 -22 0 -27 15 -7 23 21 9 27 7 27 -8z m-100
-100 c0 -2 -7 -8 -15 -15 -12 -10 -15 -10 -15 2 0 8 7 15 15 15 8 0 15 -1 15
-2z m1286 -140 c-14 -14 -16 -14 -16 -2 0 9 6 17 13 20 19 7 21 -1 3 -18z
m-1096 5 c0 -5 -7 -10 -15 -10 -8 0 -15 5 -15 10 0 6 7 10 15 10 8 0 15 -4 15
-10z m1150 -380 c0 -5 -5 -10 -11 -10 -5 0 -7 5 -4 10 3 6 8 10 11 10 2 0 4
-4 4 -10z m-123 -22 c-3 -8 -6 -5 -6 6 -1 11 2 17 5 13 3 -3 4 -12 1 -19z
m283 -18 c-6 -12 -14 -20 -17 -17 -2 3 1 14 8 26 17 26 24 19 9 -9z m-280 -36
c0 -3 -7 -12 -15 -20 -16 -17 -18 -14 -9 10 6 15 24 23 24 10z m249 -65 c-9
-31 -14 -38 -16 -23 -4 22 14 80 23 71 3 -3 0 -25 -7 -48z"/>
<path d="M5340 10168 c0 -40 -3 -237 -6 -438 -6 -385 -4 -407 36 -382 27 16
30 15 30 -8 0 -12 14 -34 30 -50 27 -27 30 -27 30 -9 0 33 19 59 44 59 25 0
76 -39 76 -58 0 -16 17 -16 23 1 3 7 7 5 12 -8 9 -23 35 -55 45 -55 4 0 12 11
18 25 17 37 35 32 28 -7 -5 -29 -5 -30 4 -9 10 23 11 23 24 6 8 -11 20 -16 30
-12 9 4 16 2 16 -3 0 -21 27 -9 40 18 13 26 14 26 18 5 4 -27 20 -30 29 -7 4
12 8 13 14 3 13 -21 36 7 54 64 8 29 24 63 36 77 l21 25 -7 -40 c-6 -42 -8
-51 -18 -75 -3 -8 -8 -34 -10 -58 l-5 -43 31 2 c42 2 64 -8 70 -33 4 -15 11
-18 26 -13 16 5 21 2 21 -11 0 -10 3 -14 7 -10 4 4 8 33 8 66 l1 59 -21 -29
c-11 -16 -25 -30 -32 -30 -21 0 -25 21 -8 40 16 17 15 19 -4 30 -21 11 -27 1
-22 -37 1 -8 -5 -10 -14 -7 -8 3 -15 1 -15 -5 0 -6 -6 -11 -14 -11 -11 0 -10
8 5 40 10 21 19 46 19 54 0 14 16 48 101 218 16 31 33 59 38 62 5 4 12 20 16
36 4 17 11 30 16 30 6 0 7 -9 3 -22 -6 -19 -3 -18 20 7 14 15 26 35 26 44 0
14 -2 14 -10 1 -7 -11 -12 -12 -18 -3 -13 20 -95 -65 -115 -119 -10 -25 -25
-49 -32 -52 -20 -7 -19 19 2 39 14 15 16 42 12 238 -2 122 -4 277 -4 345 l0
122 -362 0 -363 0 0 -72z m360 -438 c0 -19 -11 -26 -23 -14 -8 8 3 34 14 34 5
0 9 -9 9 -20z m320 -300 c-17 -32 -22 -19 -7 19 7 20 13 27 15 18 2 -9 -2 -26
-8 -37z"/>
<path d="M6610 9870 c0 -5 5 -10 10 -10 6 0 10 5 10 10 0 6 -4 10 -10 10 -5 0
-10 -4 -10 -10z"/>
<path d="M6483 9813 c-11 -10 -23 -27 -27 -37 -7 -19 -6 -19 14 -1 11 10 20
15 20 10 0 -4 7 -2 15 5 9 7 15 8 15 2 0 -18 -26 -72 -32 -67 -3 4 -19 -13
-34 -35 -16 -23 -41 -55 -56 -70 -16 -15 -28 -30 -28 -33 0 -16 104 80 112
103 8 24 17 7 11 -22 -3 -15 -9 -25 -14 -22 -5 3 -9 -1 -9 -9 0 -8 -7 -20 -15
-27 -12 -10 -13 -15 -4 -21 10 -6 10 -11 -2 -25 -7 -9 -12 -27 -11 -39 2 -15
-9 -37 -30 -61 -21 -24 -27 -35 -15 -31 20 7 23 -3 5 -21 -6 -6 -9 -15 -5 -18
6 -6 18 16 31 59 3 9 13 17 23 17 16 -1 16 -2 3 -13 -18 -14 -25 -47 -11 -47
5 0 13 5 16 10 4 6 11 8 16 4 6 -4 4 -12 -5 -23 -9 -10 -14 -30 -11 -54 2 -25
-1 -37 -9 -37 -7 0 -21 -9 -31 -20 -10 -11 -20 -18 -24 -16 -3 2 -15 -3 -26
-11 -19 -15 -19 -15 7 -11 17 3 29 0 32 -8 3 -8 0 -11 -9 -8 -10 4 -12 0 -8
-15 3 -12 1 -21 -5 -21 -6 0 -16 -8 -21 -19 -9 -16 -7 -17 14 -13 14 2 25 8
25 13 0 5 9 9 20 9 25 0 25 -18 0 -50 -27 -35 -25 -57 3 -28 35 37 127 63 127
37 0 -7 11 1 25 17 39 44 41 48 37 67 -5 24 32 17 56 -11 11 -12 26 -22 34
-22 10 0 14 -11 14 -35 -1 -19 -4 -35 -8 -35 -5 0 -8 -4 -8 -9 0 -5 11 -8 24
-8 19 0 22 4 18 21 -5 19 -4 20 12 7 13 -11 20 -11 29 -2 9 9 9 14 -2 21 -12
7 -12 12 -3 23 12 14 10 93 -4 192 -3 22 -8 58 -10 80 -3 22 -19 79 -35 127
-16 48 -29 90 -28 95 4 16 -45 106 -53 98 -3 -3 -11 1 -18 10 -7 8 -19 15 -26
15 -8 0 -14 8 -14 17 0 14 -4 13 -24 -6 -25 -24 -46 -21 -46 5 0 19 -13 18
-37 -3z m44 -85 c-3 -8 -6 -5 -6 6 -1 11 2 17 5 13 3 -3 4 -12 1 -19z"/>
<path d="M6417 9763 c-4 -3 -7 -11 -7 -17 0 -6 5 -5 12 2 6 6 9 14 7 17 -3 3
-9 2 -12 -2z"/>
<path d="M6217 9561 c-18 -7 -77 -88 -77 -107 0 -6 6 -17 14 -23 12 -10 17 -7
28 12 7 13 23 43 36 66 26 47 26 61 -1 52z"/>
<path d="M6405 9519 c-4 -6 -5 -12 -2 -15 2 -3 7 2 10 11 7 17 1 20 -8 4z"/>
<path d="M3903 9433 c-20 -3 -33 -10 -33 -18 0 -8 -7 -18 -17 -23 -9 -5 -17
-19 -18 -30 0 -11 -6 -27 -13 -34 -6 -8 -14 -48 -16 -90 -3 -41 -8 -82 -12
-92 -4 -11 -1 -22 7 -27 10 -6 10 -9 2 -9 -16 0 -17 -32 -2 -47 6 -6 12 -53
14 -105 2 -51 8 -105 14 -120 5 -14 7 -29 4 -32 -4 -3 1 -6 9 -6 12 0 16 -10
16 -35 0 -19 -4 -35 -9 -35 -5 0 -9 -13 -9 -30 0 -16 5 -30 10 -30 6 0 10 -7
10 -15 0 -8 4 -15 9 -15 14 0 32 26 24 34 -4 4 -9 32 -10 62 -1 30 -9 69 -16
87 -27 58 -27 66 -6 72 17 6 19 12 14 37 -7 32 -5 32 53 10 10 -3 13 3 10 22
-2 23 2 30 27 40 17 7 42 12 58 12 15 -1 27 2 27 6 0 4 9 8 20 8 11 0 20 5 20
10 0 13 -51 59 -65 60 -18 0 -36 39 -29 64 4 17 0 28 -14 37 -21 16 -35 56
-21 65 5 3 9 0 9 -5 0 -6 7 -11 15 -11 11 0 15 11 15 41 0 33 -6 47 -27 66
-16 14 -21 21 -10 17 20 -7 20 -6 6 35 -6 17 -16 30 -22 29 -7 0 -27 -3 -44
-5z"/>
<path d="M6295 9430 c-3 -5 -1 -10 4 -10 6 0 11 5 11 10 0 6 -2 10 -4 10 -3 0
-8 -4 -11 -10z"/>
<path d="M6069 9385 c-29 -61 -18 -68 14 -11 14 25 21 48 16 51 -4 3 -18 -15
-30 -40z"/>
<path d="M6117 9391 c-18 -27 -25 -47 -19 -53 11 -11 54 57 50 80 -2 10 -13 0
-31 -27z"/>
<path d="M6322 9399 c-13 -5 -22 -15 -19 -21 2 -7 -3 -22 -12 -32 -15 -18 -15
-18 7 -7 12 6 22 16 22 21 0 5 7 16 16 25 21 20 16 25 -14 14z"/>
<path d="M4296 9378 c-7 -16 18 -68 34 -68 4 0 11 -11 14 -25 4 -14 13 -25 21
-25 8 0 15 -5 15 -11 0 -6 6 -9 13 -6 6 2 29 -14 50 -35 28 -29 38 -48 39 -73
1 -19 5 -35 9 -35 4 0 10 -13 14 -30 4 -16 11 -30 17 -30 6 0 9 -3 6 -6 -4 -3
-16 -1 -27 6 -39 20 -24 -19 16 -43 48 -28 67 -31 57 -9 -9 22 -9 42 1 65 4
10 3 17 -4 17 -6 0 -11 -8 -11 -17 0 -12 -5 -9 -15 11 -16 31 -20 76 -7 76 5
0 14 -11 20 -25 10 -22 32 -35 32 -19 0 12 -24 50 -43 67 -22 19 -31 22 -22 7
3 -5 -1 -20 -10 -32 l-17 -23 7 23 c5 16 1 30 -11 43 -9 10 -14 19 -10 19 9 0
-21 47 -58 90 l-29 34 7 -28 c5 -20 3 -27 -6 -24 -7 3 -15 13 -18 24 -9 33
-34 64 -52 64 -9 0 -18 8 -21 18 -4 16 -4 16 -11 0z"/>
<path d="M6380 9340 c-13 -11 -27 -20 -32 -20 -4 0 -8 -4 -8 -10 0 -5 4 -10 8
-10 12 0 78 59 66 60 -6 0 -21 -9 -34 -20z"/>
<path d="M6181 9184 c0 -11 3 -14 6 -6 3 7 2 16 -1 19 -3 4 -6 -2 -5 -13z"/>
<path d="M5687 9165 c-4 -8 -2 -17 3 -20 6 -4 10 -4 10 -1 0 2 3 11 6 20 3 9
2 16 -4 16 -5 0 -12 -7 -15 -15z"/>
<path d="M5716 9152 c-8 -13 5 -52 15 -46 12 7 12 54 0 54 -6 0 -12 -4 -15 -8z"/>
<path d="M6240 9130 c-8 -5 -11 -10 -6 -10 6 0 1 -6 -10 -14 -10 -8 -16 -17
-12 -21 6 -7 48 33 48 47 0 10 -2 10 -20 -2z"/>
<path d="M6300 9129 c0 -5 5 -7 10 -4 6 3 10 8 10 11 0 2 -4 4 -10 4 -5 0 -10
-5 -10 -11z"/>
<path d="M5682 9110 c0 -14 2 -19 5 -12 2 6 2 18 0 25 -3 6 -5 1 -5 -13z"/>
<path d="M6451 9073 c-33 -40 -34 -51 -4 -32 16 10 49 69 38 69 -2 0 -17 -17
-34 -37z"/>
<path d="M6765 9050 c-3 -5 -1 -10 4 -10 6 0 11 5 11 10 0 6 -2 10 -4 10 -3 0
-8 -4 -11 -10z"/>
<path d="M6028 9019 c-7 -4 -16 -6 -20 -3 -16 10 -196 -87 -227 -121 -17 -20
-31 -39 -31 -44 0 -4 -9 -19 -21 -32 -19 -21 -21 -33 -16 -104 5 -66 9 -83 27
-97 34 -27 52 -23 44 10 -4 15 -7 29 -6 32 0 46 4 60 12 55 6 -3 10 2 10 12 0
10 9 24 20 31 11 7 20 18 20 25 0 17 36 38 53 31 8 -3 17 2 20 10 4 9 11 16
17 16 13 0 34 -49 31 -75 -1 -15 0 -17 7 -6 14 19 31 5 25 -20 -4 -14 -12 -19
-24 -16 -23 6 -23 8 0 -46 39 -91 91 -74 91 29 0 39 5 55 20 69 12 11 20 28
19 39 -3 45 1 55 19 50 92 -31 162 -106 162 -175 0 -18 -28 -65 -58 -97 -21
-23 -7 -25 32 -7 50 24 72 59 80 128 7 51 5 58 -12 65 -18 6 -103 104 -102
117 0 21 -1 25 -8 23 -4 -2 -18 7 -31 19 -13 12 -31 19 -40 16 -12 -3 -13 -2
-3 4 19 14 -21 47 -49 40 -16 -4 -20 -2 -16 12 4 18 -23 24 -45 10z"/>
<path d="M4440 8992 c0 -25 21 -38 48 -27 15 6 14 9 -8 18 -14 6 -28 16 -32
22 -4 5 -8 0 -8 -13z"/>
<path d="M4010 8873 c-1 -24 -2 -26 -11 -10 -13 22 -29 13 -29 -18 0 -25 26
-42 34 -22 2 7 5 4 5 -5 1 -10 -3 -18 -9 -18 -5 0 -10 -9 -10 -19 0 -17 3 -18
24 -8 14 7 20 15 14 18 -5 4 -3 9 6 12 19 8 20 33 4 70 -17 35 -28 34 -28 0z"/>
<path d="M4120 8840 c0 -5 5 -10 10 -10 6 0 10 -5 10 -11 0 -6 15 -28 34 -49
18 -20 38 -46 44 -56 12 -22 18 -18 27 16 4 20 0 29 -24 44 -16 11 -36 32 -46
48 -15 26 -55 39 -55 18z"/>
<path d="M6453 8754 c-3 -8 -11 -13 -19 -10 -13 5 -64 -15 -64 -25 0 -26 109
-56 141 -38 28 15 12 29 -34 31 -43 1 -45 6 -17 36 12 12 16 22 10 22 -6 0
-13 -7 -17 -16z"/>
<path d="M4095 8660 c18 -20 17 -20 -11 -20 -25 0 -29 -4 -31 -31 -2 -23 2
-32 17 -36 11 -3 17 -10 13 -15 -3 -6 0 -9 8 -6 8 3 15 14 17 26 2 16 10 22
28 22 38 0 42 28 8 56 -16 13 -38 23 -48 24 -18 0 -18 -1 -1 -20z"/>
<path d="M4162 8664 c1 -9 9 -19 16 -22 9 -3 13 2 10 14 -1 9 -9 19 -16 22 -9
3 -13 -2 -10 -14z"/>
<path d="M6638 8662 c-37 -17 -59 -52 -32 -52 17 0 17 -1 4 -34 -6 -16 -6 -27
0 -31 19 -12 11 -26 -9 -16 -14 8 -20 7 -25 -4 -3 -8 -15 -15 -26 -15 -11 0
-20 -5 -20 -11 0 -7 9 -9 24 -5 13 3 26 1 28 -4 2 -7 14 -7 36 -1 43 13 62 5
62 -25 0 -18 -6 -24 -21 -24 -11 0 -17 -4 -14 -10 3 -5 19 -10 35 -10 42 0 60
-10 60 -31 0 -11 6 -22 13 -25 7 -2 13 -20 13 -41 0 -27 7 -41 28 -58 21 -17
27 -29 23 -45 -4 -16 2 -29 20 -46 14 -13 30 -24 36 -24 5 0 6 -7 3 -16 -3 -8
-2 -12 4 -9 5 3 8 -6 7 -19 -1 -14 2 -25 8 -25 14 1 24 -34 14 -52 -5 -11 0
-31 16 -60 44 -82 58 -114 59 -142 1 -16 8 -29 18 -32 18 -6 33 -35 18 -35 -6
0 -10 -4 -10 -10 0 -14 26 -12 38 3 5 6 12 23 14 36 3 24 -1 28 -52 50 -23 10
-22 11 15 8 22 -1 40 3 40 8 0 36 -57 265 -66 265 -4 0 -9 10 -12 23 -9 40
-42 122 -54 135 -7 7 -13 19 -13 27 0 7 -4 15 -8 17 -10 4 -52 76 -52 90 0 6
-7 16 -16 23 -13 9 -14 16 -5 32 9 18 7 22 -14 27 -20 5 -25 12 -24 34 3 46 0
52 -25 52 -28 0 -102 65 -98 86 2 8 2 14 0 13 -2 0 -20 -8 -40 -17z"/>
<path d="M3910 8576 c0 -9 5 -16 10 -16 6 0 10 4 10 9 0 6 -4 13 -10 16 -5 3
-10 -1 -10 -9z"/>
<path d="M5405 8514 c-11 -17 -15 -39 -13 -61 3 -29 2 -32 -7 -19 -7 9 -15 13
-18 10 -3 -3 -12 3 -19 15 -16 25 -24 26 -46 4 -22 -22 -25 -110 -4 -118 8 -3
12 -12 9 -19 -3 -8 0 -19 7 -25 17 -14 34 -79 31 -116 -2 -16 -4 -43 -5 -60
-2 -19 -4 -23 -7 -12 -4 14 -8 16 -19 6 -10 -8 -11 -16 -4 -29 12 -22 -8 -40
-21 -19 -6 10 -11 6 -18 -14 -6 -16 -11 -33 -11 -38 0 -5 -9 -9 -20 -9 -12 0
-24 -10 -30 -24 -5 -13 -14 -27 -19 -31 -6 -3 -11 -20 -11 -36 0 -25 -3 -29
-19 -24 -21 6 -36 -9 -45 -47 -5 -20 -13 -28 -29 -28 -32 0 -42 -11 -43 -45
-3 -45 -3 -45 -19 -45 -8 0 -15 -4 -15 -10 0 -15 -18 -12 -22 4 -2 12 -6 12
-21 2 -21 -16 -12 -50 11 -41 12 4 13 -1 9 -24 -12 -61 -41 -105 -80 -124 -21
-10 -40 -24 -43 -32 -3 -7 -11 -12 -18 -9 -7 3 -18 -2 -25 -10 -7 -8 -18 -13
-25 -10 -7 3 -17 -6 -23 -18 -40 -84 -55 -120 -49 -125 3 -4 6 1 6 10 0 10 5
17 10 17 6 0 10 -13 10 -30 0 -16 5 -30 11 -30 6 0 9 7 5 15 -3 8 -1 15 4 15
6 0 10 -8 11 -17 0 -11 3 -13 6 -5 9 23 23 12 17 -13 -7 -28 5 -32 37 -12 17
10 23 10 26 0 10 -27 23 -11 23 28 0 48 16 44 26 -7 5 -27 9 -32 19 -24 9 7
15 7 19 1 4 -5 2 -12 -4 -16 -5 -3 -10 -10 -10 -16 0 -16 21 -10 41 14 l19 22
-11 -30 c-5 -16 -15 -32 -20 -36 -6 -3 -6 -14 0 -30 9 -21 10 -22 11 -4 1 22
27 62 35 54 2 -3 -4 -30 -15 -60 -22 -58 -25 -72 -11 -50 7 11 11 9 20 -8 18
-33 28 -25 36 25 7 47 23 84 37 84 5 0 8 -7 8 -15 0 -18 16 -20 24 -2 3 6 4
-14 1 -45 -3 -37 -1 -58 5 -58 6 0 8 -10 4 -25 -6 -25 10 -36 19 -12 4 8 8 8
14 2 14 -17 47 -41 40 -28 -11 17 11 27 29 12 12 -10 12 -14 2 -20 -8 -6 2 -9
27 -10 22 -1 47 -2 55 -3 8 -1 16 -9 18 -19 5 -25 17 -21 29 11 10 26 11 25
13 -18 1 -37 3 -41 10 -23 6 15 15 21 25 17 15 -6 19 0 29 49 4 16 11 25 17
21 8 -4 7 -9 -2 -15 -12 -7 -11 -9 0 -9 11 0 12 -3 4 -11 -8 -8 -4 -18 15 -36
18 -16 23 -26 15 -30 -7 -2 -13 -11 -13 -19 0 -9 -5 -12 -10 -9 -6 4 -8 15 -5
26 4 10 2 19 -3 19 -12 0 -24 -29 -17 -41 4 -5 -1 -6 -9 -3 -9 4 -16 1 -16 -6
0 -6 9 -14 20 -17 11 -3 20 -14 20 -24 0 -11 5 -19 11 -19 5 0 9 8 7 18 -3 19
30 74 41 68 3 -2 5 19 3 47 -2 45 -1 49 10 32 7 -11 12 -42 13 -69 0 -27 5
-51 11 -53 7 -2 10 6 7 22 -7 32 10 32 31 0 15 -23 45 -27 31 -4 -11 16 -14
99 -4 99 5 0 9 -5 9 -11 0 -6 7 -8 16 -5 8 3 24 1 35 -4 16 -9 19 -7 19 10 0
11 -5 20 -11 20 -5 0 -7 5 -3 11 5 8 10 6 16 -5 5 -9 22 -16 38 -16 23 0 30
-5 30 -19 0 -10 7 -22 16 -25 21 -8 21 -9 20 17 -1 20 3 22 43 19 29 -3 41 0
36 7 -3 6 -13 11 -21 11 -12 0 -12 3 -2 20 12 19 13 19 22 -3 l9 -22 7 25 c5
16 8 19 9 8 1 -19 21 -26 21 -8 0 6 7 10 15 10 18 0 20 17 4 22 -24 8 14 47
43 45 15 -1 28 -5 28 -9 0 -5 7 -8 15 -8 9 0 15 9 15 21 0 16 5 20 20 16 29
-7 120 22 120 39 0 11 7 13 28 8 22 -5 25 -4 15 7 -15 15 -17 49 -3 49 5 0 7
-7 4 -15 -4 -8 -1 -15 5 -15 6 0 11 5 11 10 0 6 11 8 25 4 24 -6 35 8 15 21
-17 10 1 36 21 30 14 -5 17 -2 13 9 -3 9 -14 16 -24 16 -19 0 -66 93 -55 110
3 6 2 10 -3 10 -5 0 -15 14 -22 31 -7 17 -18 36 -24 42 -6 7 -24 31 -40 55
-16 24 -54 60 -83 80 -42 30 -52 42 -50 62 2 21 -3 26 -25 28 -16 2 -28 -1
-28 -7 0 -6 8 -11 17 -11 12 0 14 -3 7 -10 -19 -19 -45 0 -42 31 2 20 -4 33
-24 48 -14 12 -30 21 -35 21 -5 0 -23 13 -41 30 -26 23 -34 26 -38 15 -10 -25
-29 -17 -47 20 -12 26 -23 35 -40 35 -14 0 -35 8 -48 18 -13 10 -32 21 -41 25
-10 3 -18 11 -18 16 0 6 -6 8 -14 5 -9 -3 -17 6 -24 25 -6 17 -18 31 -26 31
-8 0 -17 6 -19 13 -3 7 -6 5 -6 -5 -1 -15 -5 -14 -26 6 -16 15 -23 30 -19 40
5 12 -1 15 -31 14 -46 -2 -60 13 -77 87 -15 60 -9 126 11 133 5 2 15 18 20 35
10 29 21 37 94 65 114 45 113 44 84 76 -13 14 -34 26 -45 26 -11 0 -24 5 -27
10 -3 6 -23 10 -44 10 -31 0 -42 -5 -56 -26z m83 -674 c34 0 73 -24 68 -42 -3
-13 2 -18 16 -18 11 0 22 -8 25 -18 2 -11 22 -30 43 -43 21 -13 45 -35 52 -49
7 -14 20 -36 30 -49 10 -13 18 -32 18 -42 0 -11 4 -18 9 -16 11 3 71 -41 71
-52 0 -19 -56 -5 -75 19 -11 13 -18 25 -15 26 3 1 -7 12 -23 24 -15 12 -24 27
-21 33 5 9 4 9 -6 0 -8 -7 -10 -19 -5 -30 5 -10 9 -21 9 -25 1 -4 7 -13 14
-19 14 -15 16 -43 2 -34 -5 3 -17 22 -26 41 -21 45 -47 59 -68 38 -9 -9 -13
-21 -9 -27 21 -32 32 -82 21 -94 -16 -20 -38 -16 -48 10 -7 18 -9 13 -9 -25
-1 -27 -4 -48 -8 -48 -5 0 -7 -28 -6 -62 2 -54 1 -59 -8 -33 -18 53 -42 95
-54 95 -14 0 -71 193 -66 227 1 11 -2 24 -8 27 -15 10 -32 -129 -18 -151 8
-13 -4 -75 -26 -138 -16 -43 -15 -44 -30 30 -3 13 -5 10 -6 -10 -2 -41 -29
-116 -50 -140 -10 -11 -21 -27 -25 -35 -3 -8 -4 0 -1 18 2 18 16 57 30 87 14
31 25 58 25 60 0 14 -17 2 -33 -22 l-18 -28 6 40 c5 30 4 36 -4 25 -9 -12 -11
-10 -11 10 0 14 10 34 21 44 28 23 10 48 -21 28 -26 -16 -30 -15 -30 4 0 10
-4 12 -12 7 -7 -4 -20 -8 -28 -8 -10 0 -14 -9 -13 -25 3 -35 -17 -107 -33
-121 -8 -6 -14 -19 -14 -29 0 -10 -7 -23 -15 -30 -13 -10 -15 -9 -16 11 l-1
24 -7 -25 c-7 -25 -51 -43 -51 -20 0 6 4 9 8 6 12 -7 29 39 49 137 4 21 8 25
18 17 11 -9 15 -1 20 37 11 84 20 116 34 121 10 3 12 0 8 -12 -10 -24 -1 -19
22 12 15 22 17 29 6 29 -8 0 -12 -4 -9 -9 3 -4 1 -8 -5 -8 -14 0 -22 16 -16
32 4 10 16 13 35 10 31 -4 41 13 20 34 -6 6 -7 19 -3 31 13 33 97 123 115 123
9 0 34 11 54 25 34 23 39 24 60 10 13 -8 32 -15 42 -15z m402 -60 c0 -5 -4
-10 -10 -10 -5 0 -10 5 -10 10 0 6 5 10 10 10 6 0 10 -4 10 -10z m6 -77 c-11
-11 -19 6 -11 24 8 17 8 17 12 0 3 -10 2 -21 -1 -24z m44 -27 c0 -3 -7 -3 -15
0 -8 4 -15 13 -15 21 0 12 2 12 15 -1 8 -8 15 -17 15 -20z m-513 -196 c1 -22
-2 -40 -8 -40 -5 0 -9 18 -9 40 0 22 4 40 8 40 4 0 8 -18 9 -40z m320 -42 c-3
-8 -6 -5 -6 6 -1 11 2 17 5 13 3 -3 4 -12 1 -19z m35 -60 c-8 -8 -16 -7 -27 2
-16 14 -21 45 -5 35 6 -3 10 0 10 7 0 7 7 2 16 -11 12 -16 13 -26 6 -33z
m-135 -14 c-9 -9 -37 15 -37 33 0 10 6 8 22 -7 12 -11 19 -23 15 -26z m-174
-4 c3 -11 1 -20 -4 -20 -5 0 -9 2 -9 4 0 2 -3 11 -6 20 -3 9 -2 16 4 16 5 0
12 -9 15 -20z m117 -14 c0 -3 -7 -3 -15 0 -8 4 -15 13 -15 21 0 12 2 12 15 -1
8 -8 15 -17 15 -20z m-600 20 c0 -2 -7 -7 -16 -10 -8 -3 -12 -2 -9 4 6 10 25
14 25 6z m171 -49 c-10 -9 -11 -8 -5 6 3 10 9 15 12 12 3 -3 0 -11 -7 -18z
m-9 -59 c-7 -7 -12 -8 -12 -2 0 14 12 26 19 19 2 -3 -1 -11 -7 -17z m295 -30
c-3 -8 -6 -5 -6 6 -1 11 2 17 5 13 3 -3 4 -12 1 -19z m-303 -91 c-3 -9 -11
-17 -16 -17 -6 0 -7 7 -4 16 3 9 6 21 6 27 0 8 3 8 10 1 6 -6 8 -18 4 -27z
m106 -51 c0 -3 -4 -8 -10 -11 -5 -3 -10 -1 -10 4 0 6 5 11 10 11 6 0 10 -2 10
-4z"/>
<path d="M5396 7821 c-4 -7 -5 -15 -2 -18 9 -9 19 4 14 18 -4 11 -6 11 -12 0z"/>
<path d="M5236 7684 c-4 -10 -1 -14 6 -12 15 5 23 28 10 28 -5 0 -13 -7 -16
-16z"/>
<path d="M5591 7674 c0 -11 3 -14 6 -6 3 7 2 16 -1 19 -3 4 -6 -2 -5 -13z"/>
<path d="M5615 7661 c-6 -11 9 -23 19 -14 9 9 7 23 -3 23 -6 0 -12 -4 -16 -9z"/>
<path d="M5221 7573 c-1 -7 -7 -13 -15 -13 -7 0 -16 -11 -18 -25 -4 -16 -1
-22 6 -17 6 3 17 7 24 8 21 4 23 9 13 35 -5 13 -10 18 -10 12z"/>
<path d="M5510 7496 c0 -14 5 -26 10 -26 6 0 10 9 10 19 0 11 -4 23 -10 26 -6
4 -10 -5 -10 -19z"/>
<path d="M5350 7468 c0 -19 2 -20 10 -8 13 19 13 30 0 30 -5 0 -10 -10 -10
-22z"/>
<path d="M5307 7449 c-3 -13 -1 -19 6 -16 15 5 22 37 9 37 -5 0 -12 -9 -15
-21z"/>
<path d="M5165 8486 c-13 -13 -34 -27 -45 -31 -20 -6 -46 -42 -37 -52 10 -9
147 -25 163 -19 13 5 16 16 11 52 -5 50 -11 58 -44 68 -17 5 -29 1 -48 -18z"/>
<path d="M6600 8468 c-22 -10 -23 -12 -6 -15 10 -3 26 2 34 11 19 18 8 20 -28
4z"/>
<path d="M6328 8022 c11 -7 8 -11 -10 -16 -14 -5 -18 -9 -10 -13 6 -2 10 -9 6
-14 -8 -14 6 -11 22 5 7 8 19 16 26 19 17 6 9 13 -22 21 -17 5 -21 4 -12 -2z"/>
<path d="M6395 8000 c3 -5 8 -10 11 -10 2 0 4 5 4 10 0 6 -5 10 -11 10 -5 0
-7 -4 -4 -10z"/>
<path d="M6360 7980 c0 -5 5 -10 10 -10 6 0 10 5 10 10 0 6 -4 10 -10 10 -5 0
-10 -4 -10 -10z"/>
<path d="M5815 7940 c-3 -5 -1 -10 4 -10 6 0 11 5 11 10 0 6 -2 10 -4 10 -3 0
-8 -4 -11 -10z"/>
<path d="M6080 7684 c0 -3 21 -27 48 -54 26 -26 61 -64 77 -86 17 -21 40 -49
52 -61 13 -13 26 -35 29 -48 3 -13 12 -29 20 -36 8 -6 14 -17 14 -24 0 -7 9
-15 20 -18 12 -3 20 0 20 8 0 23 40 4 47 -23 6 -24 7 -24 19 -7 8 11 14 15 14
9 0 -5 5 -2 10 6 9 13 12 13 24 -2 16 -22 26 -23 26 -3 0 8 -8 16 -17 17 -10
0 -23 2 -30 2 -20 2 -55 54 -42 62 7 4 18 -1 25 -10 7 -10 15 -17 18 -17 3 0
13 -2 22 -6 9 -3 25 -1 35 6 15 9 26 8 50 -4 30 -16 31 -16 27 7 -2 13 -10 23
-18 23 -8 0 -20 5 -27 10 -7 6 -19 16 -27 23 -8 6 -22 12 -31 12 -9 0 -18 7
-21 15 -4 8 -13 15 -22 15 -8 0 -23 7 -33 16 -15 13 -19 14 -31 1 -11 -13 -15
-13 -31 1 -9 8 -20 12 -24 8 -4 -4 -2 -11 5 -15 10 -6 9 -11 -4 -22 -16 -12
-17 -12 -11 4 3 9 2 17 -4 17 -13 0 -58 51 -59 67 0 6 -8 18 -18 25 -9 7 -25
25 -35 41 -13 20 -26 27 -48 27 -17 0 -39 5 -50 10 -10 6 -19 8 -19 4z m280
-254 c15 -36 4 -53 -16 -26 -15 21 -20 71 -5 62 4 -3 14 -19 21 -36z"/>
<path d="M6640 7360 c-12 -8 -11 -10 8 -10 12 0 22 5 22 10 0 13 -11 13 -30 0z"/>
<path d="M4840 7240 c0 -5 5 -10 11 -10 5 0 7 5 4 10 -3 6 -8 10 -11 10 -2 0
-4 -4 -4 -10z"/>
<path d="M4906 7155 c-3 -8 3 -17 15 -20 28 -9 32 -2 9 17 -15 14 -19 14 -24
3z"/>
<path d="M5659 6980 c23 -20 51 -27 51 -12 0 8 -49 32 -64 32 -6 -1 0 -10 13
-20z"/>
<path d="M5615 6890 c-3 -5 -1 -10 4 -10 6 0 11 5 11 10 0 6 -2 10 -4 10 -3 0
-8 -4 -11 -10z"/>
<path d="M5594 6735 c-4 -8 -13 -15 -22 -15 -13 0 -12 -3 3 -20 10 -11 20 -18
23 -16 5 5 32 -19 32 -28 0 -3 -7 -6 -15 -6 -10 0 -14 -9 -13 -25 1 -14 7 -25
12 -25 5 0 18 -8 28 -17 17 -15 20 -15 28 -3 13 20 12 30 -1 30 -6 0 -9 12 -8
28 2 15 0 33 -4 40 -5 7 -3 12 7 12 28 0 17 17 -24 39 -35 18 -41 19 -46 6z"/>
<path d="M5799 6733 c-1 -5 -1 -12 0 -17 1 -4 -10 -5 -25 -2 -19 5 -25 3 -22
-6 3 -7 17 -14 31 -16 23 -3 27 0 27 22 0 23 -8 37 -11 19z"/>
<path d="M5460 6721 c0 -17 18 -21 24 -6 3 9 0 15 -9 15 -8 0 -15 -4 -15 -9z"/>
<path d="M5504 6718 c-4 -7 -3 -8 4 -4 7 4 12 1 12 -8 0 -9 5 -16 10 -16 16 0
12 27 -5 33 -8 4 -17 1 -21 -5z"/>
<path d="M5701 6707 c-9 -12 -8 -16 3 -20 19 -7 32 11 19 24 -6 6 -14 5 -22
-4z"/>
<path d="M5430 6656 c0 -9 7 -12 20 -9 31 8 34 23 6 23 -16 0 -26 -6 -26 -14z"/>
<path d="M5670 6499 c0 -11 5 -17 10 -14 6 3 10 13 10 21 0 8 -4 14 -10 14 -5
0 -10 -9 -10 -21z"/>
<path d="M10016 4832 c-3 -6 -1 -14 5 -17 15 -10 25 3 12 16 -7 7 -13 7 -17 1z"/>
<path d="M9954 4673 c1 -55 4 -68 18 -71 14 -3 16 6 13 65 -2 50 -6 69 -17 71
-12 2 -15 -10 -14 -65z"/>
<path d="M10015 4549 c-5 -5 -18 -16 -29 -23 -17 -12 -17 -14 -2 -42 15 -28
16 -29 22 -6 12 40 34 26 34 -22 0 -54 -8 -76 -26 -76 -15 0 -17 -10 -8 -34
17 -43 74 8 74 66 0 27 4 38 15 38 23 0 18 15 -10 30 -30 16 -33 40 -5 47 11
3 18 9 15 13 -3 5 -14 6 -24 3 -10 -3 -22 0 -25 6 -9 13 -18 13 -31 0z"/>
<path d="M10175 4501 c-3 -5 -1 -12 5 -16 5 -3 10 1 10 9 0 18 -6 21 -15 7z"/>
<path d="M10100 4278 c0 -32 15 -45 24 -21 4 9 0 23 -9 32 -13 14 -15 13 -15
-11z"/>
<path d="M10180 4276 c0 -6 4 -17 9 -24 7 -11 9 -11 14 2 4 9 13 13 22 10 8
-3 15 -2 15 4 0 5 -13 12 -30 14 -18 3 -30 0 -30 -6z"/>
<path d="M9829 4222 c-6 -37 3 -62 23 -62 6 0 6 6 -1 14 -8 10 -9 16 -1 21 5
3 10 10 10 15 0 10 -30 22 -31 12z"/>
<path d="M10101 4114 c0 -11 3 -14 6 -6 3 7 2 16 -1 19 -3 4 -6 -2 -5 -13z"/>
<path d="M10150 4113 c0 -15 16 -30 48 -46 28 -14 34 -14 39 -1 7 18 -35 53
-64 54 -13 0 -23 -3 -23 -7z"/>
<path d="M9837 4064 c-9 -9 4 -35 14 -28 5 3 9 12 9 20 0 14 -12 19 -23 8z"/>
<path d="M10106 4024 c-14 -36 -6 -129 14 -162 11 -18 20 -41 20 -52 0 -11 10
-25 22 -31 14 -8 18 -14 10 -17 -21 -7 -13 -32 18 -59 21 -17 30 -34 30 -54 0
-18 4 -28 10 -24 6 3 10 50 10 106 0 93 -1 100 -19 94 -26 -8 -48 20 -25 33
15 8 15 11 -1 36 -10 14 -24 26 -31 26 -8 0 -14 9 -14 20 0 13 7 20 20 20 18
0 18 1 2 29 -21 38 -58 56 -66 35z"/>
<path d="M10177 4033 c-12 -12 -7 -33 8 -33 17 0 32 -25 39 -65 3 -15 8 -30
11 -33 7 -7 6 103 -1 122 -6 16 -45 22 -57 9z"/>
<path d="M9849 3996 c16 -19 44 -21 39 -3 -3 6 -15 14 -28 15 -21 3 -22 2 -11
-12z"/>
<path d="M9864 3935 c-4 -10 3 -48 16 -87 21 -64 24 -68 39 -53 13 13 14 17 2
24 -8 5 -10 14 -6 21 4 7 2 16 -6 21 -8 5 -14 25 -14 45 0 39 -20 58 -31 29z"/>
<path d="M9960 3930 c0 -5 5 -10 11 -10 5 0 7 5 4 10 -3 6 -8 10 -11 10 -2 0
-4 -4 -4 -10z"/>
<path d="M10040 3920 c-9 -6 -10 -10 -3 -10 6 0 15 5 18 10 8 12 4 12 -15 0z"/>
<path d="M3385 3750 c-10 -11 -16 -22 -13 -25 3 -3 13 4 23 15 10 11 16 22 13
25 -3 3 -13 -4 -23 -15z"/>
<path d="M10015 3732 c-5 -4 -15 -16 -21 -27 -14 -25 -44 -32 -44 -11 0 23
-18 29 -36 12 -16 -17 -16 -14 2 -306 3 -63 13 -150 33 -295 12 -88 31 -164
43 -171 5 -3 4 -11 -2 -19 -9 -10 -7 -20 5 -38 16 -24 12 -55 -9 -69 -7 -5 -5
-8 5 -8 24 0 39 -62 43 -172 3 -72 11 -120 31 -180 15 -46 32 -99 38 -118 13
-44 32 -86 57 -125 25 -41 24 -54 -5 -77 -34 -26 -32 -41 4 -33 34 7 45 -6 56
-68 4 -20 11 -40 17 -43 11 -7 4 846 -8 901 -5 22 -22 61 -37 87 -29 48 -52
155 -37 171 8 9 50 -43 50 -62 0 -6 9 -11 20 -11 11 0 20 7 20 15 0 8 -5 15
-10 15 -6 0 -10 6 -9 13 3 14 -10 42 -51 115 -24 41 -28 57 -20 72 19 36 8
119 -41 312 -10 42 -19 85 -19 96 0 25 -51 42 -75 24z m81 -158 c-3 -7 -12
-11 -20 -8 -22 8 -30 42 -15 60 11 14 14 12 27 -11 7 -15 11 -33 8 -41z m-74
31 c15 -34 0 -80 -27 -80 -17 0 -20 6 -18 40 5 70 23 87 45 40z m-22 -121 c0
-8 -7 -14 -15 -14 -15 0 -21 21 -9 33 10 9 24 -2 24 -19z"/>
<path d="M7165 3720 c3 -5 8 -10 11 -10 2 0 4 5 4 10 0 6 -5 10 -11 10 -5 0
-7 -4 -4 -10z"/>
<path d="M6658 3703 c6 -2 18 -2 25 0 6 3 1 5 -13 5 -14 0 -19 -2 -12 -5z"/>
<path d="M7179 3693 c-1 -5 0 -16 1 -26 2 -19 -7 -19 -59 1 -10 4 -13 1 -9 -9
19 -52 20 -62 4 -56 -20 8 -31 -10 -16 -28 6 -8 7 -16 2 -19 -13 -8 -21 -55
-11 -62 5 -3 9 -12 9 -20 0 -11 -4 -12 -19 -4 -29 15 -46 13 -33 -3 9 -10 8
-19 -3 -35 -14 -19 -14 -22 1 -30 29 -16 10 -39 -28 -34 -30 5 -32 3 -19 -11
16 -21 6 -108 -12 -104 -8 1 -12 -11 -11 -35 1 -36 -1 -38 -28 -38 l-30 0 21
-34 c12 -18 21 -41 21 -50 0 -9 5 -16 10 -16 6 0 10 -11 10 -25 0 -16 -6 -25
-15 -25 -9 0 -18 -12 -22 -30 -3 -17 -10 -33 -14 -36 -5 -3 -7 -10 -4 -15 4
-5 -3 -9 -15 -9 -13 0 -19 -4 -14 -11 3 -6 0 -15 -7 -20 -11 -7 -6 -16 23 -40
l36 -30 -22 -24 c-13 -14 -28 -25 -35 -25 -6 0 -11 -5 -11 -11 0 -7 -8 -9 -22
-4 -13 3 -31 8 -40 9 -10 1 -21 5 -24 9 -4 4 -14 7 -21 7 -8 0 -31 12 -50 27
-25 19 -38 24 -41 15 -4 -14 -32 -16 -32 -2 0 6 5 10 10 10 6 0 10 5 10 10 0
6 -9 10 -19 10 -11 0 -22 9 -26 19 -10 31 -85 60 -168 64 -41 3 -80 1 -87 -3
-18 -11 -7 -46 13 -42 9 2 17 -2 17 -8 0 -5 -5 -10 -11 -10 -5 0 -7 -5 -3 -11
16 -27 -64 -40 -86 -14 -7 8 -23 15 -35 15 -13 0 -25 5 -27 11 -2 6 -12 10
-23 8 -15 -3 -7 -12 33 -38 33 -21 51 -39 48 -47 -3 -8 -1 -14 5 -14 6 0 7 -5
4 -10 -4 -6 -15 -8 -26 -5 -25 8 -25 -11 1 -27 30 -19 24 -31 -10 -23 -25 5
-29 4 -24 -10 6 -14 3 -14 -35 1 -40 16 -43 16 -55 -1 -7 -10 -18 -15 -24 -11
-7 4 -12 2 -12 -5 0 -9 -3 -9 -15 1 -8 6 -23 9 -34 5 -10 -3 -22 -1 -26 5 -15
25 -24 7 -9 -21 12 -24 13 -33 4 -39 -9 -5 -9 -13 -1 -27 12 -24 5 -34 -17
-26 -11 5 -14 2 -9 -10 3 -9 2 -17 -3 -17 -6 0 -10 -7 -10 -15 0 -8 5 -15 10
-15 6 0 10 -7 10 -15 0 -18 -12 -19 -28 -3 -8 8 -12 9 -12 1 0 -6 4 -13 9 -15
5 -2 7 -18 3 -36 l-7 -34 -19 21 c-29 31 -37 25 -20 -14 8 -20 12 -41 8 -47
-4 -7 -3 -8 4 -4 7 4 12 1 12 -8 0 -10 -8 -13 -29 -11 l-29 4 15 -30 c12 -24
13 -33 3 -42 -9 -9 -17 -5 -36 17 -28 31 -42 30 -24 -4 15 -28 40 -100 35
-100 -2 0 -20 21 -40 48 -34 43 -36 45 -29 17 l7 -30 -22 24 c-24 28 -38 23
-22 -8 6 -11 9 -37 5 -58 -3 -21 -1 -49 4 -63 6 -17 5 -33 -5 -50 -12 -24 -13
-24 -13 -3 0 12 -4 24 -10 28 -5 3 -8 -10 -6 -32 2 -21 -1 -44 -6 -50 -7 -8
-6 -24 1 -44 13 -37 5 -52 -13 -26 -19 25 -26 21 -22 -15 4 -45 9 -62 21 -70
6 -5 3 -8 -7 -8 -14 0 -16 -6 -11 -32 4 -22 3 -29 -5 -24 -7 4 -12 17 -12 29
0 27 -15 53 -23 40 -3 -5 -4 -42 -2 -81 3 -65 -5 -92 -18 -59 -3 6 -6 1 -6
-13 -1 -20 -3 -22 -12 -10 -8 11 -9 5 -7 -27 2 -23 0 -39 -4 -37 -5 3 -8 15
-8 26 0 28 -7 20 -15 -17 -12 -55 -10 -85 6 -85 5 0 7 5 4 10 -3 6 -1 10 4 10
13 0 13 -7 1 -35 -5 -11 -9 -14 -9 -7 -1 11 -31 18 -31 7 0 -3 7 -22 15 -42
16 -38 20 -71 4 -38 -6 14 -8 5 -4 -30 4 -33 2 -45 -4 -35 -5 8 -12 44 -16 80
-4 38 -15 76 -26 91 -10 15 -19 32 -19 39 0 6 -5 8 -10 5 -6 -4 -8 -21 -5 -39
5 -27 3 -32 -14 -33 -14 -1 -23 8 -30 29 -18 51 -26 22 -22 -74 2 -71 0 -89
-10 -83 -9 6 -11 2 -7 -13 4 -12 2 -22 -2 -22 -5 0 -11 -9 -15 -19 -9 -28 -36
-35 -42 -11 -3 11 -8 20 -12 20 -8 0 -31 -96 -31 -129 0 -17 -4 -22 -16 -17
-11 4 -18 -1 -21 -14 -3 -11 -9 -17 -14 -14 -5 3 -9 0 -9 -7 0 -8 -4 -8 -15 1
-8 7 -15 19 -15 26 0 8 -5 14 -10 14 -6 0 -10 -8 -8 -17 2 -13 -4 -19 -22 -20
-14 -1 -18 0 -7 3 18 6 24 44 7 44 -5 0 -10 -5 -10 -11 0 -5 -4 -7 -10 -4 -5
3 -10 11 -10 16 0 6 5 7 10 4 14 -9 12 7 -4 28 -12 15 -15 15 -26 2 -9 -10 -9
-15 -1 -15 6 0 11 -7 11 -15 0 -19 -24 -19 -40 0 -7 8 -16 13 -20 10 -4 -3
-10 2 -14 10 -3 8 -15 15 -27 15 -22 0 -22 -8 -4 -52 9 -24 -14 -24 -31 -1 -7
10 -15 15 -19 12 -3 -4 5 -19 18 -35 13 -16 29 -39 36 -51 10 -20 9 -23 -5
-23 -13 0 -14 -3 -5 -14 8 -10 9 -16 2 -21 -8 -4 -6 -15 3 -33 27 -54 40 -146
19 -138 -15 6 -18 -44 -4 -60 5 -5 11 -26 13 -47 2 -29 -2 -42 -17 -53 -10 -8
-14 -14 -9 -14 12 0 11 -26 -2 -55 -28 -62 8 -478 47 -557 11 -21 19 -48 19
-62 0 -14 5 -28 10 -31 6 -3 10 -17 10 -30 0 -53 4 -55 127 -55 73 0 112 4
108 10 -3 5 -15 10 -25 10 -25 0 -16 27 11 35 27 9 24 25 -5 25 -24 0 -24 1
-9 31 14 28 14 31 -2 43 -17 12 -16 15 6 47 13 18 30 40 37 47 15 17 15 27 0
52 -10 16 -10 24 -1 40 7 10 9 22 4 25 -5 3 -7 14 -4 25 4 13 -2 29 -16 44
-29 31 -22 86 18 137 34 41 37 51 19 48 -7 -1 -24 -1 -37 0 -23 1 -24 2 -6 21
10 11 22 20 26 20 17 0 89 35 89 43 0 4 -5 5 -10 2 -7 -4 -9 2 -5 17 5 19 1
27 -19 38 -14 7 -26 17 -26 22 0 15 22 52 39 64 12 9 13 15 3 26 -12 15 -9 23
47 124 9 17 22 29 28 27 6 -2 14 6 18 19 4 13 24 39 44 58 42 40 94 140 85
163 -3 8 -1 18 5 22 6 3 11 14 11 25 0 10 7 20 15 24 10 4 13 15 10 38 -4 31
-4 31 6 -4 l11 -37 24 26 c14 15 22 33 19 43 -4 14 -1 16 21 12 25 -5 26 -3
20 22 -6 25 -5 26 15 16 17 -10 24 -9 36 3 10 10 11 17 4 21 -6 4 -11 0 -11
-8 0 -9 -5 -16 -10 -16 -6 0 -9 13 -8 28 1 15 -1 33 -6 40 -4 7 -2 12 4 12 6
0 10 16 8 40 -2 43 -16 53 -26 18 -5 -21 -6 -21 -12 -2 -10 25 -2 44 16 37 11
-4 13 5 9 43 -3 26 -9 51 -15 54 -5 3 -9 14 -8 25 1 11 -2 31 -6 45 -6 19 -2
15 18 -13 14 -21 26 -42 26 -47 0 -6 6 -10 14 -10 9 0 16 12 18 30 l3 30 32
-22 c18 -13 31 -29 28 -35 -7 -19 5 -43 21 -43 8 0 14 -7 14 -15 0 -8 -7 -15
-16 -15 -11 0 -14 -6 -9 -22 13 -41 23 -41 30 1 4 25 11 39 17 35 6 -4 8 -1 6
7 -3 8 -11 13 -17 11 -6 -1 -11 9 -11 22 0 13 -4 26 -9 28 -6 2 -12 16 -15 31
-3 16 -10 34 -15 41 -6 7 -9 22 -7 33 3 12 -4 36 -13 55 -26 48 -34 78 -22 78
6 0 11 -7 11 -15 0 -8 7 -15 16 -15 10 0 14 -6 11 -15 -4 -8 -2 -17 4 -20 5
-4 16 -21 23 -38 l14 -32 -1 43 c-1 26 -6 41 -13 38 -8 -3 -9 9 -3 37 4 26 3
47 -3 55 -6 7 -8 15 -5 18 9 9 27 -5 27 -21 0 -8 6 -12 14 -9 12 5 46 -49 46
-73 0 -6 8 -20 19 -31 11 -14 16 -31 14 -46 -5 -24 24 -86 39 -86 4 0 10 11
14 25 4 17 -3 39 -24 74 -17 27 -32 62 -35 78 -3 26 -18 65 -38 105 -5 10 -9
28 -8 40 0 21 1 21 8 4 5 -14 10 -16 15 -8 5 9 11 8 23 -3 23 -23 30 -9 8 16
-16 17 -17 22 -5 29 12 7 12 12 2 22 -10 10 -15 10 -22 -2 -5 -8 -10 -10 -10
-4 0 17 27 37 40 29 6 -3 17 -22 25 -41 8 -19 18 -34 23 -34 12 0 47 -90 43
-109 -1 -8 3 -25 10 -38 10 -18 10 -26 1 -35 -9 -9 -12 -6 -12 15 0 19 -4 25
-15 21 -11 -4 -19 3 -26 25 -6 17 -17 31 -25 31 -8 0 -18 8 -21 18 -8 20 -33
47 -33 35 0 -8 28 -53 40 -63 9 -8 27 -54 26 -65 0 -5 -5 -9 -9 -7 -5 1 0 -14
11 -35 11 -21 26 -53 33 -71 8 -24 14 -30 20 -20 6 9 9 7 9 -9 0 -33 23 -33
40 1 15 29 15 34 -3 69 -10 22 -16 42 -13 45 3 3 6 0 6 -7 0 -8 8 -11 20 -8
17 4 20 0 20 -29 0 -24 5 -34 15 -34 8 0 15 5 15 10 0 6 -5 10 -12 10 -6 0 -8
3 -5 6 4 4 13 1 22 -6 25 -21 28 -5 5 34 -11 20 -20 44 -19 54 0 9 3 12 5 5 3
-7 12 -9 20 -6 8 3 14 0 14 -5 0 -6 6 -17 14 -25 8 -8 22 -31 30 -52 19 -45
33 -40 17 6 -17 48 -14 71 7 65 9 -3 24 -1 32 5 13 9 12 10 -2 5 -14 -4 -18 0
-18 17 0 12 -9 33 -20 47 -29 36 -25 47 15 42 32 -4 35 -2 35 22 0 14 -3 26
-7 26 -5 0 -13 11 -20 25 -6 14 -7 25 -3 25 15 0 62 -68 60 -87 -4 -33 0 -53
10 -53 5 0 7 6 4 14 -4 10 2 12 22 8 24 -4 25 -6 11 -17 -10 -7 -17 -15 -17
-19 0 -12 16 -6 38 14 12 12 22 18 22 14 0 -3 7 -1 15 6 24 20 18 -7 -7 -32
-13 -13 -22 -29 -20 -35 2 -7 -2 -13 -8 -13 -6 0 0 -19 12 -42 12 -24 21 -46
20 -50 -1 -5 2 -8 8 -8 5 0 10 -4 10 -10 0 -13 -32 0 -47 19 -10 13 -11 12 -6
-9 4 -14 14 -30 22 -37 12 -9 13 -12 2 -13 -9 0 -12 -9 -9 -30 5 -33 4 -34
-22 -20 -22 12 -41 -7 -20 -20 9 -5 9 -13 2 -26 -6 -11 -8 -32 -5 -47 4 -21 2
-27 -13 -28 -18 0 -18 -1 1 -9 19 -8 19 -9 1 -9 -14 -1 -17 -6 -12 -21 3 -11
9 -29 12 -40 5 -15 3 -19 -8 -15 -17 7 -38 -33 -38 -70 0 -14 -4 -25 -10 -25
-5 0 -7 -7 -4 -15 4 -8 2 -15 -4 -15 -5 0 -9 -18 -9 -41 0 -22 -5 -45 -11 -51
-7 -7 -7 -19 -2 -34 7 -18 6 -24 -5 -24 -11 0 -14 -11 -11 -45 3 -40 2 -43
-15 -35 -24 14 -33 12 -22 -2 19 -24 32 -77 21 -80 -7 -3 -4 -14 7 -31 21 -33
16 -41 -18 -28 -31 12 -44 -1 -21 -20 14 -12 14 -14 -5 -21 -21 -7 -21 -9 -6
-38 15 -28 14 -30 -4 -30 -16 0 -19 -7 -18 -52 1 -33 -2 -53 -10 -55 -7 -3
-13 -9 -13 -15 0 -5 -7 -26 -16 -45 -13 -25 -14 -37 -5 -46 16 -16 14 -27 -5
-27 -10 0 -14 -6 -10 -15 3 -8 0 -15 -6 -15 -6 0 -8 -11 -4 -31 4 -20 0 -39
-11 -55 -9 -14 -18 -48 -20 -77 -3 -32 -10 -55 -19 -60 -9 -5 -13 -16 -9 -28
4 -11 2 -19 -5 -19 -7 0 -9 -8 -5 -20 4 -11 2 -20 -4 -20 -10 0 -8 -41 4 -72
5 -13 2 -15 -15 -11 -20 5 -21 4 -10 -17 9 -17 9 -24 1 -30 -7 -3 -9 -14 -5
-23 3 -10 1 -17 -6 -17 -6 0 -8 -4 -5 -10 3 -5 3 -16 -2 -22 -4 -7 -8 -29 -9
-48 -1 -19 -3 -44 -5 -55 -4 -20 2 -20 1645 -22 l1650 -3 -32 31 c-18 17 -32
40 -32 51 0 16 8 11 40 -24 22 -23 40 -46 40 -50 0 -5 20 -8 45 -8 36 0 45 3
45 18 1 16 1 16 14 0 8 -12 27 -18 50 -18 33 0 36 2 26 19 -5 11 -10 28 -10
38 0 14 8 9 33 -19 l34 -38 89 0 89 0 -32 26 c-18 14 -33 34 -33 45 0 29 11
23 53 -26 l39 -45 145 0 c135 0 144 1 132 17 -13 15 -11 16 11 9 14 -4 35 -10
48 -13 l22 -5 0 164 0 164 -28 27 c-15 15 -34 27 -42 27 -39 0 -153 111 -133
131 5 5 33 -15 68 -51 33 -33 65 -60 72 -60 7 0 13 -3 13 -7 0 -5 11 -13 25
-20 l25 -11 0 83 c0 63 -4 86 -16 96 -14 12 -14 14 1 26 24 17 15 89 -14 110
-29 20 -26 49 6 70 l27 18 -29 5 c-38 7 -40 34 -2 38 26 3 27 5 27 64 0 54 -2
59 -16 47 -13 -11 -19 -8 -38 16 -14 18 -27 25 -35 20 -8 -5 -24 5 -44 26 -26
28 -32 31 -35 17 -5 -24 -16 -23 -36 4 -14 22 -16 22 -29 6 -13 -17 -15 -17
-31 0 -9 10 -16 25 -16 32 0 11 -3 11 -12 2 -16 -16 -28 -15 -28 3 0 9 -8 18
-17 22 -10 3 -26 13 -36 22 -17 14 -20 14 -33 -4 -15 -20 -15 -20 -34 5 -17
21 -21 23 -30 10 -9 -13 -14 -11 -33 12 -27 33 -47 36 -47 8 0 -13 -5 -18 -15
-14 -8 4 -15 12 -15 19 0 22 -28 39 -44 26 -11 -9 -17 -6 -30 14 -19 28 -36
33 -36 9 0 -11 -5 -14 -16 -10 -9 3 -18 6 -20 6 -2 0 -4 8 -4 19 0 23 -14 34
-62 48 -33 10 -37 9 -42 -11 -6 -21 -6 -21 -25 4 -26 33 -35 21 -26 -36 5 -38
10 -45 25 -41 24 6 63 -21 56 -39 -3 -9 1 -14 14 -14 27 0 30 -9 35 -97 7
-104 11 -121 35 -128 34 -11 25 -37 -12 -33 -27 2 -35 9 -43 35 -5 18 -17 35
-27 39 -10 3 -20 20 -24 42 -10 55 -35 113 -46 106 -5 -3 -7 -13 -4 -21 5 -12
1 -14 -18 -9 -14 3 -27 2 -30 -2 -7 -12 9 -33 24 -30 9 2 14 -8 16 -29 2 -34
13 -49 59 -74 21 -12 32 -29 40 -62 6 -25 17 -53 25 -61 7 -10 8 -16 2 -16 -6
0 -12 4 -14 9 -5 15 -39 -15 -39 -36 0 -10 3 -30 7 -45 4 -19 2 -28 -6 -28 -9
0 -8 -6 3 -23 10 -15 12 -29 7 -38 -7 -10 -26 4 -79 59 -39 40 -71 80 -71 90
1 16 2 16 14 -1 8 -10 20 -15 29 -11 10 3 23 -5 38 -25 21 -29 49 -42 49 -22
0 4 -13 25 -30 46 -16 21 -30 42 -30 46 0 5 -11 9 -25 9 -25 0 -75 39 -75 59
0 5 -10 16 -23 23 -69 39 -87 54 -87 74 0 31 -24 48 -40 29 -11 -13 -9 -19 9
-38 26 -28 27 -37 2 -37 -30 0 -71 39 -71 67 0 15 -5 23 -12 20 -7 -2 -21 0
-30 5 -11 5 -18 5 -18 -1 0 -5 7 -11 15 -15 8 -3 15 -11 15 -17 0 -7 7 -21 17
-31 22 -25 9 -35 -29 -20 -24 9 -33 8 -44 -2 -11 -11 -7 -17 23 -37 40 -26 61
-54 50 -65 -4 -4 -21 3 -38 15 -17 13 -33 21 -36 18 -6 -7 23 -54 56 -89 30
-34 22 -45 -19 -28 -38 16 -46 9 -25 -23 16 -26 84 -77 101 -77 10 0 54 -64
54 -80 0 -22 -32 -8 -50 23 -11 17 -38 41 -61 52 -23 10 -53 35 -68 54 -14 19
-36 46 -48 59 -25 27 -38 60 -28 70 3 3 16 -7 29 -23 16 -20 28 -26 41 -21 16
6 14 12 -22 49 -23 23 -48 59 -57 80 -11 26 -21 37 -36 37 -12 0 -30 5 -41 10
-10 6 -19 7 -19 2 0 -16 40 -61 60 -67 11 -4 20 -11 20 -16 0 -20 -38 -7 -76
24 -21 19 -56 42 -77 52 -23 11 -40 27 -43 41 -7 26 -12 28 -32 16 -9 -6 -6
-14 13 -32 14 -13 25 -32 25 -42 0 -29 -95 41 -96 71 -1 13 -7 26 -13 30 -7 5
-11 27 -9 56 3 56 -10 67 -41 34 -16 -17 -18 -26 -10 -36 6 -7 9 -22 6 -33 -4
-14 4 -29 26 -50 17 -16 29 -31 26 -34 -2 -3 -24 0 -48 5 -24 5 -46 8 -48 5
-3 -3 20 -28 51 -57 31 -28 56 -56 56 -60 0 -17 -21 -8 -57 24 -63 56 -144
107 -170 107 -28 0 -85 57 -91 93 -6 40 -6 72 2 100 5 16 4 27 -2 27 -5 0 -9
-8 -8 -18 0 -10 -6 -17 -15 -16 -13 1 -18 -10 -22 -45 -4 -39 -2 -49 19 -68
13 -12 24 -29 24 -38 0 -13 -4 -14 -33 -2 -23 10 -37 11 -48 4 -12 -7 -27 -6
-50 4 -19 7 -45 12 -57 10 -13 -1 -34 6 -45 17 -12 10 -30 22 -39 25 -15 5
-16 4 -6 -13 16 -26 8 -31 -31 -20 -31 9 -32 8 -29 -17 2 -14 11 -31 21 -37
30 -18 120 -106 115 -111 -7 -8 -38 5 -38 16 0 4 -20 20 -45 35 -25 14 -53 40
-62 58 -9 17 -23 36 -32 43 -19 14 -51 17 -51 4 0 -15 141 -181 154 -181 7 0
25 -9 39 -20 14 -11 35 -20 46 -20 12 0 21 -6 21 -15 0 -21 -13 -19 -75 10
-46 22 -104 72 -116 102 -2 4 -21 21 -41 36 -21 15 -38 35 -38 44 0 8 -26 40
-57 69 -67 62 -106 74 -52 17 19 -21 48 -58 65 -82 16 -25 40 -56 53 -70 34
-38 55 -71 47 -78 -3 -4 -16 3 -29 14 -12 11 -30 23 -39 26 -10 4 -18 15 -18
24 0 10 -8 26 -17 34 -10 9 -25 27 -33 40 -28 43 -68 79 -90 79 -21 0 -20 -2
10 -37 17 -21 43 -51 56 -68 13 -16 38 -47 55 -68 18 -21 29 -40 26 -43 -6 -7
-67 24 -67 34 0 4 -43 52 -95 107 -54 56 -98 112 -101 127 -4 15 -15 28 -26
31 -28 8 -21 51 9 55 18 3 22 -2 25 -30 2 -25 8 -34 25 -36 18 -3 21 1 19 20
-2 13 -9 36 -16 51 -16 32 -3 48 31 40 15 -4 19 0 18 18 0 13 -3 18 -6 12 -7
-20 -31 -15 -38 7 -3 11 -2 28 4 37 10 17 11 16 17 -4 8 -30 20 -29 28 2 9 34
2 42 -44 56 -29 9 -39 18 -43 38 -3 14 -1 29 5 32 6 4 8 11 4 17 -3 6 -2 13 4
17 13 8 13 132 0 140 -8 5 -7 11 0 20 8 10 8 19 0 35 -6 11 -13 48 -15 83 -4
64 -30 207 -45 242 -15 36 -19 82 -8 93 7 7 2 27 -17 67 -18 40 -23 61 -16 68
7 7 2 24 -15 55 -18 33 -22 47 -14 57 7 9 8 15 1 19 -5 4 -10 37 -10 74 0 277
-7 418 -21 439 -12 19 -12 28 -2 55 10 27 9 36 -4 56 -11 16 -14 35 -9 58 3
19 1 43 -6 56 -6 12 -14 69 -16 127 -2 72 -8 110 -17 120 -8 9 -22 39 -31 66
-9 28 -19 57 -22 65 -3 8 -5 23 -4 33 2 11 -5 21 -18 24 -23 6 -27 23 -9 41 8
8 8 15 -1 26 -7 8 -10 20 -7 25 7 11 -24 81 -36 81 -4 0 -9 -3 -9 -7z m31 -55
c0 -18 -2 -20 -9 -8 -6 8 -7 18 -5 22 9 14 14 9 14 -14z m-765 -738 c3 -5 1
-10 -4 -10 -6 0 -11 5 -11 10 0 6 2 10 4 10 3 0 8 -4 11 -10z m340 -130 c4 -6
-5 -10 -19 -10 -14 0 -26 5 -26 10 0 6 9 10 19 10 11 0 23 -4 26 -10z m-190
-21 c14 -7 36 -7 64 0 24 5 49 8 55 6 6 -2 23 -6 37 -9 28 -6 57 -52 36 -59
-7 -2 10 -28 38 -62 l50 -58 -37 6 c-31 5 -38 3 -38 -11 0 -10 -9 -23 -21 -30
-14 -9 -18 -19 -14 -32 5 -15 3 -18 -9 -14 -13 5 -16 -1 -16 -29 0 -27 -5 -37
-20 -42 -16 -5 -18 -10 -10 -26 6 -11 9 -23 6 -28 -3 -4 -1 -22 4 -40 5 -19 5
-31 -1 -31 -12 0 -12 -37 1 -45 5 -3 14 -14 20 -25 8 -15 7 -17 -12 -12 -17 4
-20 2 -15 -12 4 -10 3 -15 -3 -11 -18 11 -23 -25 -6 -44 18 -20 22 -36 6 -26
-13 8 -13 -1 1 -26 9 -18 8 -19 -18 -13 -25 7 -27 6 -14 -9 12 -15 11 -17 -3
-17 -9 0 -25 -9 -36 -20 -11 -11 -20 -15 -20 -9 0 7 -11 9 -27 6 -16 -3 -44
-2 -63 3 -19 4 -27 8 -17 9 9 1 17 5 17 9 0 15 -38 44 -49 37 -7 -4 -8 0 -4
10 4 11 -4 27 -21 44 -56 55 -87 96 -75 100 6 2 14 -1 18 -6 3 -6 15 -7 25 -4
17 7 16 11 -16 42 -35 35 -52 94 -24 83 8 -3 17 -12 20 -20 3 -8 12 -14 20
-14 7 0 16 -9 19 -20 5 -20 37 -29 37 -10 0 6 -5 10 -11 10 -5 0 -7 5 -4 10 3
6 0 10 -8 10 -18 0 -30 27 -16 36 6 3 19 -4 29 -16 16 -19 21 -20 26 -7 3 8
14 17 25 20 26 7 24 27 -2 27 -14 0 -19 5 -16 14 3 8 -1 17 -9 20 -10 4 -13 2
-8 -7 4 -6 -5 1 -20 16 -26 28 -27 59 -1 37 9 -8 14 -5 18 10 5 21 -8 37 -18
21 -3 -6 -15 -1 -26 10 -26 26 -22 30 25 22 26 -4 41 -13 48 -29 6 -13 15 -24
20 -24 5 0 6 4 3 10 -3 5 12 12 34 16 28 4 41 12 44 26 4 14 11 18 25 14 13
-5 22 0 30 18 10 23 3 34 -28 40 -3 1 -11 5 -18 10 -7 4 -16 5 -19 2 -4 -3
-17 4 -31 16 -13 13 -25 22 -28 21 -8 -5 -34 10 -34 19 0 6 8 16 17 23 15 11
15 13 -5 19 -21 7 -24 11 -26 39 -1 6 -5 15 -10 18 -14 10 86 -1 109 -12z
m-195 -214 c0 -8 -7 -15 -15 -15 -26 0 -18 20 13 29 1 1 2 -6 2 -14z m-100
-165 c38 -38 20 -41 -25 -5 -23 19 -26 25 -12 25 9 0 26 -9 37 -20z m-96 -27
c4 -9 4 -18 1 -21 -3 -3 -5 0 -5 7 0 7 -5 9 -10 6 -8 -5 -7 -11 1 -21 7 -9 8
-14 1 -14 -5 0 -14 13 -20 28 -8 24 -7 28 8 29 10 1 21 -5 24 -14z m58 -38
c-9 -11 -18 -22 -19 -24 -2 -3 -2 7 -1 20 1 16 8 25 20 25 16 0 16 -1 0 -21z
m-32 0 c0 -8 -4 -15 -10 -15 -5 0 -7 7 -4 15 4 8 8 15 10 15 2 0 4 -7 4 -15z
m-140 -16 c0 -6 -4 -7 -10 -4 -5 3 -10 11 -10 16 0 6 5 7 10 4 6 -3 10 -11 10
-16z m190 -13 c0 -8 -5 -18 -10 -21 -7 -4 -6 -14 2 -28 7 -12 13 -37 13 -55 2
-31 1 -31 -17 -16 -21 20 -24 40 -6 46 8 3 2 15 -15 34 -26 27 -26 29 -7 32
11 2 20 8 20 13 0 5 5 9 10 9 6 0 10 -6 10 -14z m-130 -38 c16 -22 30 -51 30
-64 0 -13 13 -37 30 -54 31 -32 22 -38 -23 -17 -31 14 -52 56 -42 86 4 12 2
21 -4 21 -6 0 -11 6 -11 14 0 7 -7 19 -15 26 -17 14 -20 30 -5 30 5 0 23 -19
40 -42z m50 -8 c11 -22 20 -45 20 -52 0 -19 -29 25 -30 45 0 9 -4 17 -9 17 -5
0 -11 9 -14 20 -8 31 11 13 33 -30z m105 9 c11 -17 -1 -21 -15 -4 -8 9 -8 15
-2 15 6 0 14 -5 17 -11z m99 -158 c-6 -6 -34 20 -34 32 0 6 8 2 19 -9 10 -10
17 -21 15 -23z m-164 -11 c0 -5 -2 -10 -4 -10 -3 0 -8 5 -11 10 -3 6 -1 10 4
10 6 0 11 -4 11 -10z m180 -20 c0 -5 -4 -10 -10 -10 -5 0 -10 5 -10 10 0 6 5
10 10 10 6 0 10 -4 10 -10z m-440 -88 c0 -7 -4 -10 -10 -7 -5 3 -10 16 -10 28
0 18 2 19 10 7 5 -8 10 -21 10 -28z m606 -27 c-9 -9 -16 -13 -16 -8 0 12 22
34 28 28 2 -2 -3 -11 -12 -20z m-416 -40 c0 -8 -2 -15 -4 -15 -2 0 -6 7 -10
15 -3 8 -1 15 4 15 6 0 10 -7 10 -15z m-380 -5 c0 -5 -2 -10 -4 -10 -3 0 -8 5
-11 10 -3 6 -1 10 4 10 6 0 11 -4 11 -10z m147 -32 c-3 -8 -6 -5 -6 6 -1 11 2
17 5 13 3 -3 4 -12 1 -19z m293 -18 c0 -10 5 -20 12 -22 7 -3 8 -10 3 -17 -5
-10 -12 -4 -21 19 -17 38 -18 53 -4 45 6 -3 10 -15 10 -25z m-100 -10 c0 -5
-4 -10 -10 -10 -5 0 -10 5 -10 10 0 6 5 10 10 10 6 0 10 -4 10 -10z m-380 -75
c0 -8 -4 -15 -8 -15 -5 0 -9 7 -9 15 0 8 4 15 9 15 4 0 8 -7 8 -15z m-43 -67
c-3 -8 -6 -5 -6 6 -1 11 2 17 5 13 3 -3 4 -12 1 -19z m50 -73 c-4 -8 -12 -15
-19 -14 -10 0 -10 2 0 6 6 2 12 12 12 21 0 8 3 13 6 9 4 -3 4 -13 1 -22z m28
-82 c12 -31 23 -103 16 -103 -7 0 -41 96 -41 113 0 14 18 6 25 -10z m1683
-435 c14 -14 16 -28 2 -28 -5 0 -14 9 -20 20 -12 22 -1 27 18 8z m85 -114 c39
-78 36 -96 -9 -41 -39 50 -60 119 -35 116 3 0 23 -34 44 -75z m2115 -14 c21
-120 24 -132 45 -168 15 -26 22 -31 26 -20 3 9 22 28 41 44 19 16 41 37 48 46
20 28 35 22 29 -11 -4 -17 -2 -31 4 -33 6 -2 13 -26 15 -53 2 -28 6 -62 10
-77 10 -43 -9 -33 -31 17 -11 25 -25 45 -32 45 -15 0 -17 12 -3 26 5 5 6 15 0
23 -7 12 -11 12 -24 2 -9 -8 -16 -19 -16 -25 0 -7 -11 -23 -24 -36 l-25 -23
-40 40 c-23 22 -41 49 -41 61 0 12 -8 23 -21 27 -18 6 -20 12 -14 38 8 39 8
81 0 125 -6 31 -4 33 17 30 20 -3 25 -12 36 -78z m-1628 -18 c-15 -5 -40 17
-40 36 0 12 6 10 26 -9 14 -13 20 -25 14 -27z m90 16 c31 -23 38 -38 18 -38
-14 0 -58 40 -58 52 0 13 8 10 40 -14z m84 -7 c19 -20 24 -31 16 -36 -13 -8
-60 32 -60 52 0 20 14 16 44 -16z m1646 5 c0 -14 5 -28 10 -31 18 -11 0 -25
-31 -25 -19 0 -29 5 -29 15 0 7 -7 18 -17 23 -28 16 -8 42 32 42 30 0 35 -3
35 -24z m-1509 -94 c-14 -5 -68 34 -81 59 -23 42 4 38 47 -8 25 -26 40 -49 34
-51z m1359 83 c0 -8 -4 -15 -10 -15 -5 0 -10 7 -10 15 0 8 5 15 10 15 6 0 10
-7 10 -15z m380 -35 c0 -12 -3 -12 -16 2 -9 9 -13 21 -9 28 9 14 25 -5 25 -30z
m-2562 -39 c7 -11 9 -21 5 -21 -11 0 -43 54 -43 72 0 7 6 3 13 -8 6 -12 18
-31 25 -43z m895 3 c22 -25 50 -50 61 -56 52 -24 85 -46 79 -52 -13 -13 -45
-5 -67 17 -13 12 -30 23 -37 25 -20 4 -89 79 -89 97 0 24 10 18 53 -31z m-784
5 c24 -32 24 -43 -1 -34 -13 5 -38 45 -38 60 0 14 19 1 39 -26z m959 6 c9 -8
33 -28 52 -45 28 -23 31 -29 16 -30 -36 0 -106 55 -106 84 0 11 20 6 38 -9z
m523 -43 c12 -12 19 -26 15 -29 -17 -18 -84 56 -71 78 6 9 11 7 21 -7 8 -10
24 -29 35 -42z m-411 38 c0 -5 6 -10 14 -10 7 0 25 -15 39 -34 14 -18 40 -39
56 -46 33 -13 46 -48 14 -35 -31 12 -37 10 -41 -8 -2 -11 10 -32 32 -53 38
-37 45 -54 21 -54 -14 0 -44 24 -120 98 -52 50 -41 74 13 31 24 -19 27 -19 30
-4 4 19 -25 55 -44 55 -19 0 -44 29 -44 51 0 10 7 19 15 19 8 0 15 -4 15 -10z
m1312 -25 c5 -16 7 -49 4 -72 -4 -27 -1 -45 8 -52 7 -6 16 -31 18 -55 3 -23
17 -60 32 -82 49 -72 29 -86 -31 -21 -21 23 -52 49 -69 57 -16 8 -31 16 -33
17 -2 1 1 8 6 15 6 7 15 27 21 45 10 29 8 33 -10 39 -20 6 -20 7 -4 16 17 9
17 11 0 29 -16 17 -16 19 -1 19 17 0 22 16 18 58 -3 35 30 24 41 -13z m-1894
7 c6 -18 -15 -14 -22 4 -4 10 -1 14 6 12 6 -2 14 -10 16 -16z m1081 -19 c33
-40 39 -63 17 -63 -22 0 -66 51 -66 76 0 34 14 30 49 -13z m511 27 c0 -5 -4
-10 -10 -10 -5 0 -10 5 -10 10 0 6 5 10 10 10 6 0 10 -4 10 -10z m-1496 -15
c23 -17 13 -34 -11 -19 -19 12 -29 34 -16 34 4 0 17 -7 27 -15z m-604 -75 c0
-22 -36 19 -45 50 -6 24 -6 24 19 -5 14 -16 25 -37 26 -45z m720 2 c-15 -5
-40 17 -40 36 0 12 6 10 26 -9 14 -13 20 -25 14 -27z m1300 15 c8 -14 11 -29
7 -33 -11 -11 -47 26 -47 48 0 26 21 18 40 -15z m-1928 6 c10 -9 18 -20 18
-25 0 -11 -49 24 -50 35 0 12 12 8 32 -10z m702 -21 c17 -28 35 -42 64 -50 38
-12 99 -68 87 -80 -3 -3 -19 4 -35 16 -16 12 -34 22 -40 22 -14 0 -120 105
-120 119 0 22 20 10 44 -27z m1656 13 c0 -8 -4 -15 -10 -15 -5 0 -10 7 -10 15
0 8 5 15 10 15 6 0 10 -7 10 -15z m-2230 -31 c0 -12 -4 -12 -20 -4 -11 6 -20
17 -20 26 0 12 4 12 20 4 11 -6 20 -17 20 -26z m295 24 c30 -13 34 -39 6 -31
-23 6 -60 43 -43 43 6 0 23 -5 37 -12z m1092 -76 c46 -62 50 -72 29 -72 -20 0
-106 103 -106 127 0 28 13 38 25 18 5 -9 29 -42 52 -73z m-1301 51 c-7 -7 -26
7 -26 19 0 6 6 6 15 -2 9 -7 13 -15 11 -17z m698 8 c11 -12 14 -21 7 -25 -15
-10 -51 12 -51 29 0 21 24 19 44 -4z m500 -22 c27 -31 33 -49 17 -49 -11 0
-71 61 -71 72 0 18 30 6 54 -23z m420 -4 c20 -30 21 -46 2 -39 -11 4 -36 45
-36 59 0 14 20 2 34 -20z m81 -41 c18 -43 18 -44 5 -44 -15 0 -43 48 -36 65 8
23 14 19 31 -21z m87 -20 c35 -66 24 -90 -21 -42 -33 35 -47 70 -36 88 12 19
28 5 57 -46z m-1022 26 c0 -5 -7 -10 -15 -10 -8 0 -15 5 -15 10 0 6 7 10 15
10 8 0 15 -4 15 -10z m433 -52 c30 -29 29 -49 -2 -41 -23 6 -65 79 -55 95 5 8
11 6 18 -7 6 -11 24 -32 39 -47z m644 20 c-3 -8 -6 -5 -6 6 -1 11 2 17 5 13 3
-3 4 -12 1 -19z m-1027 -13 c7 -14 19 -25 26 -25 7 0 32 -18 56 -39 34 -32 40
-41 27 -46 -33 -13 -139 78 -139 120 0 23 15 18 30 -10z m451 -7 c6 -13 21
-32 34 -43 30 -26 42 -65 21 -65 -8 0 -21 7 -28 16 -7 8 -21 23 -31 32 -11 9
-23 28 -28 40 -16 42 12 59 32 20z m113 6 c3 -9 6 -23 6 -31 0 -13 -3 -13 -15
-3 -16 13 -21 50 -6 50 5 0 12 -7 15 -16z m-614 -56 c0 -14 -17 -9 -44 13 -14
11 -26 27 -26 35 0 11 10 7 35 -13 19 -15 35 -31 35 -35z m243 40 c18 -12 34
-26 36 -31 2 -5 21 -28 42 -49 42 -44 51 -65 19 -48 -32 17 -140 123 -140 137
0 18 7 16 43 -9z m625 -38 c21 -28 21 -30 4 -30 -23 0 -42 19 -42 42 0 26 13
22 38 -12z m313 -10 c3 -19 13 -49 22 -67 24 -46 21 -51 -13 -18 -24 23 -32
26 -45 15 -22 -19 -19 -26 32 -81 35 -38 44 -52 35 -61 -9 -9 -23 0 -57 35
-38 40 -45 54 -45 86 0 33 4 40 23 43 12 2 21 8 21 13 -1 6 -4 25 -8 43 -5 28
-3 33 11 30 11 -2 20 -16 24 -38z m62 9 c3 -10 1 -19 -4 -19 -5 0 -9 7 -9 15
0 8 -7 15 -16 15 -8 0 -13 4 -9 10 9 14 32 1 38 -21z m234 -45 c-17 -17 -66
44 -52 66 5 7 16 -1 32 -25 14 -20 23 -39 20 -41z m-786 26 c22 -22 44 -39 50
-38 18 4 21 -16 6 -37 -14 -17 -16 -17 -61 20 -34 30 -46 46 -46 67 0 15 3 28
6 28 4 0 24 -18 45 -40z m309 -10 c0 -6 7 -25 16 -41 20 -40 13 -46 -20 -18
-37 32 -56 72 -44 94 9 15 11 15 29 -4 10 -11 19 -25 19 -31z m-1106 -1 c17
-15 -3 -23 -29 -11 -32 15 -34 36 -2 27 12 -4 26 -11 31 -16z m1166 1 c0 -5
-4 -10 -10 -10 -5 0 -10 5 -10 10 0 6 5 10 10 10 6 0 10 -4 10 -10z m-826 -28
c8 -16 33 -41 55 -56 40 -28 77 -73 67 -83 -20 -20 -156 114 -156 153 0 23 19
15 34 -14z m-250 -23 c-7 -12 -21 -3 -35 22 -10 20 -10 20 15 4 14 -10 23 -21
20 -26z m626 8 c0 -18 -2 -19 -10 -7 -13 20 -13 43 0 35 6 -3 10 -16 10 -28z
m-95 -17 c28 -45 32 -65 10 -53 -17 10 -65 73 -65 85 0 22 33 3 55 -32z m339
-1 c32 -46 28 -61 -12 -38 -19 10 -28 24 -30 47 -4 42 7 40 42 -9z m456 3 c0
-13 -3 -12 -20 3 -11 10 -17 22 -14 27 8 12 34 -11 34 -30z m-1206 3 c24 -14
51 -34 61 -45 17 -19 17 -20 -6 -39 l-24 -19 -3 23 c-2 13 -19 34 -42 50 -38
27 -59 55 -39 55 6 0 30 -11 53 -25z m614 -59 c47 -50 50 -56 23 -56 -26 0
-81 53 -81 79 0 30 10 26 58 -23z m776 19 c20 -30 20 -35 2 -35 -17 0 -48 39
-40 52 9 14 21 9 38 -17z m-1064 -42 c0 -20 -17 -16 -34 9 -26 37 -20 55 9 28
14 -13 25 -29 25 -37z m530 48 c0 -5 23 -36 50 -68 49 -56 58 -82 33 -91 -8
-2 -13 6 -13 22 0 18 -8 30 -22 37 -23 11 -78 81 -78 99 0 6 7 10 15 10 8 0
15 -4 15 -9z m-1049 -17 c12 -14 11 -16 -5 -13 -11 2 -21 10 -24 17 -5 17 13
15 29 -4z m335 -33 c22 -22 57 -58 79 -80 l39 -41 -34 6 c-46 9 -150 120 -135
144 9 14 8 14 51 -29z m-156 -3 c22 -18 40 -39 40 -45 0 -7 7 -13 15 -13 8 0
15 -6 15 -14 0 -27 -21 -28 -45 -2 -13 14 -28 26 -34 26 -9 0 -41 55 -41 72 0
14 10 9 50 -24z m423 -22 c26 -30 58 -57 71 -60 15 -4 26 -16 30 -32 9 -34 0
-43 -18 -19 -13 18 -14 18 -25 -3 -15 -27 -14 -42 2 -42 15 0 52 -58 42 -68
-9 -10 -39 12 -52 40 -7 14 -30 33 -52 43 -22 9 -42 24 -45 31 -3 8 -16 14
-29 14 -28 0 -42 14 -51 53 -9 37 -2 34 24 -10 l22 -37 19 24 c18 24 20 24 30
6 6 -10 20 -27 31 -38 19 -19 21 -19 37 -3 15 15 14 18 -14 38 -45 33 -85 79
-85 99 0 28 12 22 63 -36z m-503 24 c0 -5 -2 -10 -4 -10 -3 0 -8 5 -11 10 -3
6 -1 10 4 10 6 0 11 -4 11 -10z m620 -32 c0 -15 -19 -8 -29 11 -14 25 0 37 16
15 7 -10 13 -21 13 -26z m699 16 c10 -22 9 -25 -6 -22 -10 2 -19 13 -21 26 -5
30 12 28 27 -4z m-470 -18 c32 -33 35 -61 6 -50 -14 6 -55 64 -55 78 0 14 18
4 49 -28z m308 -54 c11 -16 13 -26 6 -33 -18 -18 -63 31 -69 76 l-6 40 26 -30
c15 -16 34 -40 43 -53z m259 7 c17 -6 87 -89 81 -95 -5 -6 -53 25 -91 59 -11
9 -23 17 -28 17 -13 0 -30 41 -23 58 5 14 9 12 28 -9 12 -14 27 -28 33 -30z
m-1441 31 c3 -5 1 -10 -4 -10 -6 0 -11 5 -11 10 0 6 2 10 4 10 3 0 8 -4 11
-10z m975 -33 c0 -11 9 -21 20 -24 11 -3 20 -8 20 -12 0 -4 16 -15 35 -25 62
-34 38 -57 -27 -26 -31 15 -48 31 -61 61 -19 40 -16 89 3 59 6 -8 10 -23 10
-33z m-242 7 c23 -16 52 -64 52 -85 0 -7 -10 -1 -22 12 -13 13 -36 34 -52 45
-17 12 -26 26 -22 32 9 16 17 15 44 -4z m-613 -62 c-26 -6 -45 6 -45 28 0 20
0 20 31 -2 24 -18 27 -24 14 -26z m155 8 c6 -11 18 -20 28 -20 18 -1 47 -22
71 -53 13 -17 12 -18 -12 -12 -16 5 -33 2 -42 -5 -12 -10 -16 -7 -25 15 -6 15
-24 40 -40 55 -35 33 -42 67 -10 50 11 -6 24 -19 30 -30z m854 -15 c4 -14 18
-32 32 -42 25 -16 27 -16 43 6 16 21 19 22 34 6 21 -20 21 -26 2 -19 -16 7
-45 -12 -45 -28 0 -6 17 -26 37 -44 26 -24 32 -34 20 -34 -9 0 -22 9 -29 20
-7 11 -18 20 -23 20 -6 0 -30 18 -53 39 -32 30 -42 47 -42 70 0 37 15 41 24 6z
m-243 -7 c32 -36 23 -56 -11 -23 -16 16 -30 32 -30 37 0 15 23 8 41 -14z
m-441 -66 c-17 -6 -40 19 -40 42 1 19 3 18 25 -9 14 -16 20 -32 15 -33z m-220
32 c0 -8 -4 -12 -10 -9 -5 3 -10 10 -10 16 0 5 5 9 10 9 6 0 10 -7 10 -16z
m1100 0 c0 -8 -4 -12 -10 -9 -5 3 -10 10 -10 16 0 5 5 9 10 9 6 0 10 -7 10
-16z m171 -41 c60 -59 69 -73 46 -73 -16 0 -137 107 -137 121 0 24 37 4 91
-48z m-994 20 c10 -16 23 -32 29 -38 6 -5 14 -20 17 -32 4 -19 2 -21 -13 -13
-28 15 -70 69 -70 91 0 27 17 24 37 -8z m259 -15 c9 -16 13 -32 11 -35 -8 -8
-68 57 -62 67 9 15 35 0 51 -32z m249 -8 c17 -18 33 -44 51 -78 7 -13 -12 -42
-27 -42 -5 0 -9 12 -9 27 0 14 -11 41 -25 59 -38 49 -29 77 10 34z m-120 -26
c9 -14 14 -29 10 -32 -7 -7 -45 34 -45 49 0 17 18 9 35 -17z m-161 -29 c11
-19 23 -35 28 -35 4 0 8 -7 8 -15 0 -8 -4 -15 -8 -15 -23 0 -72 63 -72 92 0
26 23 12 44 -27z m232 20 c3 -13 21 -45 39 -71 19 -26 32 -51 29 -56 -8 -12
-61 33 -73 62 -6 14 -16 32 -22 41 -13 18 -6 49 10 49 6 0 13 -11 17 -25z
m179 -3 c7 -20 101 -102 116 -102 5 0 14 10 20 22 8 19 9 18 4 -11 -4 -25 0
-37 12 -47 10 -7 15 -16 10 -20 -23 -23 -197 120 -197 161 0 28 25 25 35 -3z
m-855 -2 c0 -5 -2 -10 -4 -10 -3 0 -8 5 -11 10 -3 6 -1 10 4 10 6 0 11 -4 11
-10z m74 -9 c21 -23 4 -38 -18 -15 -17 17 -21 34 -8 34 5 0 17 -9 26 -19z
m1011 -39 c-7 -7 -45 19 -45 32 0 26 14 25 31 -1 10 -15 16 -29 14 -31z m-935
17 c0 -5 -4 -9 -10 -9 -5 0 -10 7 -10 16 0 8 5 12 10 9 6 -3 10 -10 10 -16z
m1063 -19 c38 -27 44 -36 32 -43 -24 -13 -95 45 -95 78 0 9 9 5 63 -35z
m-1013 13 c0 -10 17 -32 37 -50 39 -32 41 -53 5 -34 -28 15 -76 101 -56 101 8
0 14 -8 14 -17z m139 -43 c0 -11 -3 -10 -14 4 -8 11 -15 27 -15 35 0 11 4 10
15 -5 8 -10 14 -26 14 -34z m-284 -10 c16 -16 25 -33 22 -37 -4 -4 -13 -1 -19
5 -7 7 -22 12 -35 12 -24 0 -27 7 -17 34 9 22 16 20 49 -14z m540 9 c4 -11 4
-23 0 -27 -7 -7 -25 17 -25 36 0 20 18 14 25 -9z m-465 -8 c0 -5 3 -18 7 -28
6 -16 5 -16 -10 -4 -19 15 -23 41 -7 41 6 0 10 -4 10 -9z m75 -51 c17 -32 10
-38 -20 -16 -11 8 -16 19 -12 30 9 23 14 20 32 -14z"/>
<path d="M9980 681 c0 -5 6 -14 14 -20 16 -13 32 2 21 19 -8 12 -35 13 -35 1z"/>
<path d="M4895 3349 c-4 -11 -4 -23 -1 -27 4 -3 9 4 13 16 4 17 9 20 18 12 7
-6 11 -20 8 -30 -6 -22 12 -28 20 -7 6 12 11 -16 8 -43 -2 -12 0 -12 7 -1 7 9
12 10 16 2 4 -6 18 -8 30 -5 19 4 25 1 30 -20 5 -19 13 -26 31 -26 21 0 25 5
25 30 0 27 -4 31 -55 45 -30 9 -59 14 -65 10 -6 -4 -10 4 -10 19 0 27 -3 30
-42 40 -21 5 -28 2 -33 -15z"/>
<path d="M6363 3363 c-9 -3 -9 -10 3 -28 9 -13 13 -28 10 -33 -3 -6 6 -13 19
-16 16 -4 23 -11 19 -18 -5 -8 1 -8 22 -3 16 5 46 8 67 7 27 -1 40 4 49 17 7
11 19 16 30 13 10 -2 18 0 18 6 0 6 -19 13 -42 17 -24 4 -55 14 -70 21 -29 15
-104 25 -125 17z"/>
<path d="M6560 3355 c0 -11 12 -15 49 -15 52 0 76 14 41 23 -11 3 -18 1 -14
-4 3 -5 -2 -9 -10 -9 -8 0 -18 5 -21 10 -10 16 -45 12 -45 -5z"/>
<path d="M6560 3280 c0 -5 7 -10 16 -10 8 0 12 5 9 10 -3 6 -10 10 -16 10 -5
0 -9 -4 -9 -10z"/>
<path d="M5140 3252 c0 -10 21 -32 31 -32 4 0 5 9 2 20 -5 19 -33 29 -33 12z"/>
<path d="M6397 3227 c-3 -9 14 -25 46 -43 57 -33 71 -54 35 -53 -12 0 -17 3
-10 6 26 10 10 18 -30 15 -34 -4 -40 -2 -35 12 7 17 -13 18 -25 1 -14 -19 -8
-35 17 -41 14 -3 25 -10 25 -15 0 -5 13 -9 29 -9 16 0 31 -6 34 -12 3 -8 8 -6
13 7 4 11 16 29 27 40 18 19 19 19 32 2 7 -10 15 -14 16 -9 2 6 31 13 64 17
33 3 60 7 60 8 0 1 6 12 13 25 8 15 9 22 1 22 -6 0 -24 9 -39 20 -16 11 -30
16 -32 10 -2 -6 -23 -7 -61 0 -65 10 -91 5 -82 -17 4 -12 1 -13 -12 -8 -10 5
-28 8 -40 8 -13 -1 -23 5 -23 13 0 18 -16 18 -23 1z"/>
<path d="M5535 3204 c19 -16 19 -16 -13 -10 -20 3 -31 2 -27 -4 10 -16 96 -72
101 -67 9 8 -46 85 -64 91 -13 5 -12 2 3 -10z"/>
<path d="M4930 3119 c0 -5 5 -7 10 -4 6 3 10 8 10 11 0 2 -4 4 -10 4 -5 0 -10
-5 -10 -11z"/>
<path d="M4990 3108 c0 -8 16 -21 35 -30 26 -12 35 -12 35 -3 0 16 -18 30 -47
39 -16 5 -23 3 -23 -6z"/>
<path d="M6430 3080 c0 -5 4 -10 9 -10 6 0 13 5 16 10 3 6 -1 10 -9 10 -9 0
-16 -4 -16 -10z"/>
<path d="M5077 3053 c-4 -3 -7 -11 -7 -17 0 -6 5 -5 12 2 6 6 9 14 7 17 -3 3
-9 2 -12 -2z"/>
<path d="M6507 3032 c-23 -26 -13 -32 52 -32 43 0 70 -7 114 -30 81 -42 97
-40 97 9 0 47 -6 50 -107 53 -40 1 -73 5 -73 10 0 16 -67 8 -83 -10z"/>
<path d="M6430 2989 c0 -5 5 -7 10 -4 6 3 10 8 10 11 0 2 -4 4 -10 4 -5 0 -10
-5 -10 -11z"/>
<path d="M6470 2970 c0 -12 8 -12 35 0 18 8 17 9 -7 9 -16 1 -28 -3 -28 -9z"/>
<path d="M5176 2962 c-3 -5 5 -17 19 -26 30 -20 32 -13 6 15 -10 11 -22 16
-25 11z"/>
<path d="M6330 2936 c0 -14 5 -26 10 -26 6 0 10 9 10 19 0 11 -4 23 -10 26 -6
4 -10 -5 -10 -19z"/>
<path d="M6110 2902 c0 -17 27 -32 45 -25 12 4 16 3 12 -4 -5 -7 1 -9 14 -6
21 6 21 6 -2 18 -38 20 -69 27 -69 17z"/>
<path d="M6310 2889 c0 -5 9 -9 20 -9 11 0 20 -4 20 -10 0 -5 5 -10 10 -10 21
0 8 19 -20 29 -18 6 -30 6 -30 0z"/>
<path d="M5300 2870 c0 -5 4 -10 9 -10 5 0 18 -3 28 -6 16 -5 16 -4 -1 10 -23
18 -36 20 -36 6z"/>
<path d="M4630 2235 c0 -5 5 -17 10 -25 5 -8 10 -10 10 -5 0 6 -5 17 -10 25
-5 8 -10 11 -10 5z"/>
<path d="M4698 2177 c6 -7 15 -24 20 -37 9 -23 9 -23 14 -2 4 12 3 20 -2 17
-4 -3 -10 4 -13 15 -3 11 -11 20 -17 20 -9 0 -10 -4 -2 -13z"/>
<path d="M5440 2146 c0 -8 5 -18 10 -21 6 -3 10 1 10 9 0 8 -4 18 -10 21 -5 3
-10 -1 -10 -9z"/>
<path d="M9940 2145 c0 -16 27 -32 37 -21 7 7 -16 36 -28 36 -5 0 -9 -7 -9
-15z"/>
<path d="M4775 2110 c-9 -14 3 -47 18 -53 11 -4 15 19 8 56 -2 10 -19 9 -26
-3z"/>
<path d="M5470 2093 c0 -5 5 -15 10 -23 8 -12 10 -11 10 8 0 12 -4 22 -10 22
-5 0 -10 -3 -10 -7z"/>
<path d="M9955 2040 c3 -5 8 -10 11 -10 2 0 4 5 4 10 0 6 -5 10 -11 10 -5 0
-7 -4 -4 -10z"/>
<path d="M10145 2040 c3 -5 8 -10 11 -10 2 0 4 5 4 10 0 6 -5 10 -11 10 -5 0
-7 -4 -4 -10z"/>
<path d="M9380 2015 c0 -8 5 -15 10 -15 6 0 10 7 10 15 0 8 -4 15 -10 15 -5 0
-10 -7 -10 -15z"/>
<path d="M9436 2003 c-6 -14 -5 -15 5 -6 7 7 10 15 7 18 -3 3 -9 -2 -12 -12z"/>
<path d="M6160 1994 c0 -17 17 -36 24 -26 3 5 -1 15 -9 22 -8 7 -15 9 -15 4z"/>
<path d="M2797 1959 c4 -13 8 -18 11 -10 2 7 -1 18 -6 23 -8 8 -9 4 -5 -13z"/>
<path d="M6010 1975 c0 -12 24 -55 32 -55 4 0 8 -7 8 -17 0 -9 3 -13 7 -10 3
4 2 17 -4 30 -6 12 -14 30 -17 40 -5 15 -26 25 -26 12z"/>
<path d="M9936 1969 c3 -5 10 -9 16 -9 6 0 17 -8 25 -17 13 -17 14 -17 11 1
-2 12 -14 23 -31 27 -16 4 -25 3 -21 -2z"/>
<path d="M9433 1920 c-1 -21 -7 -48 -12 -59 -8 -15 -7 -20 5 -25 12 -5 15 -14
11 -34 -3 -16 0 -35 9 -46 9 -13 10 -23 4 -31 -7 -9 -7 -21 0 -40 5 -14 11
-50 12 -78 1 -29 4 -56 8 -62 4 -5 7 -25 9 -44 1 -19 7 -41 13 -48 6 -7 7 -13
3 -13 -4 0 -3 -6 2 -12 5 -7 10 -23 11 -36 0 -12 10 -34 21 -48 12 -15 21 -36
21 -48 0 -12 12 -33 28 -47 47 -43 52 -44 48 -2 -4 48 -16 93 -25 93 -13 0
-33 76 -26 99 4 14 -1 33 -14 54 -11 19 -17 38 -12 43 21 23 28 70 16 104 -8
25 -9 40 -2 52 8 12 7 21 -2 31 -10 12 -10 20 1 37 11 18 10 23 -6 36 -21 15
-55 10 -68 -10 -8 -11 -12 28 -8 73 1 13 -3 33 -8 45 -6 12 -13 29 -16 39 -10
30 -22 18 -23 -23z"/>
<path d="M9522 1899 c-7 -12 -11 -24 -8 -27 3 -3 6 -2 6 2 0 4 9 2 21 -5 27
-14 44 1 34 30 -8 27 -36 27 -53 0z"/>
<path d="M1435 1880 c-3 -5 -1 -10 4 -10 6 0 11 5 11 10 0 6 -2 10 -4 10 -3 0
-8 -4 -11 -10z"/>
<path d="M6021 1843 c-1 -18 3 -33 9 -33 5 0 12 -11 16 -25 3 -14 10 -25 15
-25 4 0 0 19 -10 43 -10 23 -21 49 -24 57 -3 8 -6 0 -6 -17z"/>
<path d="M9940 1836 c0 -19 5 -38 10 -41 6 -3 10 -17 10 -30 0 -13 4 -26 8
-29 13 -8 8 86 -6 112 -17 30 -22 28 -22 -12z"/>
<path d="M8310 1771 c0 -12 6 -21 15 -21 8 0 15 4 15 9 0 5 -7 14 -15 21 -13
10 -15 9 -15 -9z"/>
<path d="M6108 1751 c-3 -18 -2 -48 2 -65 6 -29 7 -28 11 17 5 58 -6 98 -13
48z"/>
<path d="M10216 1745 c4 -8 8 -15 10 -15 2 0 4 7 4 15 0 8 -4 15 -10 15 -5 0
-7 -7 -4 -15z"/>
<path d="M3580 1726 c0 -18 31 -29 44 -16 8 8 7 14 -4 20 -22 14 -40 12 -40
-4z"/>
<path d="M6074 1724 c3 -9 6 -20 6 -25 0 -6 5 -7 10 -4 8 5 8 11 1 19 -6 7 -8
16 -4 19 3 4 1 7 -6 7 -8 0 -11 -6 -7 -16z"/>
<path d="M5467 1703 c-8 -13 2 -43 14 -43 10 0 10 8 0 34 -5 12 -10 16 -14 9z"/>
<path d="M10210 1680 c0 -5 5 -10 11 -10 5 0 7 5 4 10 -3 6 -8 10 -11 10 -2 0
-4 -4 -4 -10z"/>
<path d="M6060 1669 c0 -15 26 -39 44 -39 8 0 18 -4 21 -10 11 -18 23 -11 18
10 -4 16 -11 18 -31 13 -19 -4 -23 -3 -17 7 4 7 2 16 -6 21 -19 12 -29 11 -29
-2z"/>
<path d="M9955 1660 c-3 -11 -3 -25 1 -32 5 -7 9 -44 11 -83 2 -70 14 -143 26
-162 6 -10 8 -140 3 -223 -4 -59 3 -80 24 -80 22 0 36 61 20 90 -6 11 -9 24
-6 28 10 17 16 171 6 177 -13 8 -13 48 1 62 8 8 7 17 -2 31 -7 12 -11 24 -7
27 8 8 59 -15 81 -37 9 -9 24 -15 32 -12 19 8 20 24 1 24 -7 0 -19 7 -26 15
-7 8 -19 15 -27 15 -25 0 -73 40 -73 61 0 22 12 24 40 7 31 -20 35 -1 7 28
-15 15 -27 22 -27 15 0 -6 -4 -11 -10 -11 -5 0 -10 5 -10 10 0 14 -41 70 -51
70 -4 0 -10 -9 -14 -20z m85 -341 c0 -6 -4 -7 -10 -4 -5 3 -10 11 -10 16 0 6
5 7 10 4 6 -3 10 -11 10 -16z"/>
<path d="M2947 1631 c-4 -17 -3 -21 5 -13 5 5 8 16 6 23 -3 8 -7 3 -11 -10z"/>
<path d="M2992 1610 c-14 -23 -16 -60 -3 -60 7 0 24 70 18 77 -2 1 -8 -7 -15
-17z"/>
<path d="M3055 1599 c-4 -6 -5 -12 -2 -15 2 -3 7 2 10 11 7 17 1 20 -8 4z"/>
<path d="M10151 1534 c0 -11 3 -14 6 -6 3 7 2 16 -1 19 -3 4 -6 -2 -5 -13z"/>
<path d="M0 768 l0 -768 905 0 905 0 0 39 c0 22 4 51 10 65 12 33 -3 34 -28 1
-24 -30 -42 -32 -42 -5 0 11 -4 20 -10 20 -5 0 -10 -4 -10 -10 0 -5 -4 -10
-10 -10 -5 0 -10 6 -10 14 0 8 -10 16 -22 18 -13 2 -23 10 -24 18 -1 29 -26
68 -40 63 -8 -3 -14 1 -14 11 0 19 -16 21 -24 4 -4 -7 -4 1 -2 17 3 17 1 37
-4 45 -8 12 -18 7 -50 -28 -38 -40 -40 -41 -34 -15 7 28 7 28 -14 10 -25 -23
-41 -4 -18 22 20 22 21 45 2 38 -12 -5 -10 5 5 41 14 32 18 52 11 62 -5 9 -13
30 -16 47 -4 17 -13 37 -21 43 -7 6 -11 19 -8 30 4 15 1 18 -15 13 -17 -4 -20
-1 -15 16 3 12 1 21 -6 21 -6 0 -17 16 -26 36 -8 19 -19 33 -25 29 -11 -7 -20
10 -24 47 -1 13 -5 28 -8 33 -3 6 -4 30 -3 55 2 26 -3 59 -12 79 -9 20 -12 44
-8 60 17 68 17 91 1 91 -16 0 -32 42 -22 58 3 5 -1 15 -9 22 -8 7 -12 16 -10
21 3 4 -2 12 -12 18 -13 7 -17 21 -15 59 1 28 7 63 13 78 5 16 7 45 4 66 -4
23 -2 44 4 52 9 10 8 15 -5 20 -13 5 -15 15 -11 40 5 30 2 35 -21 45 -57 21
-98 23 -1020 34 l-192 2 0 -767z"/>
<path d="M2941 1511 c-8 -5 -10 -14 -6 -21 6 -9 10 -8 17 4 12 21 7 28 -11 17z"/>
<path d="M5352 1460 c0 -19 2 -27 5 -17 2 9 2 25 0 35 -3 9 -5 1 -5 -18z"/>
<path d="M10200 1430 c0 -13 28 -25 38 -16 3 4 0 11 -8 16 -20 13 -30 12 -30
0z"/>
<path d="M7640 1370 c0 -4 11 -17 25 -30 14 -13 25 -18 25 -12 0 20 25 13 50
-13 20 -21 60 -35 60 -20 0 16 -25 53 -43 64 -22 14 -117 22 -117 11z"/>
<path d="M5147 1349 c7 -7 15 -10 18 -7 3 3 -2 9 -12 12 -14 6 -15 5 -6 -5z"/>
<path d="M7826 1353 c-10 -10 -7 -25 4 -18 5 3 15 -3 22 -14 9 -16 15 -17 26
-9 10 9 18 9 32 0 16 -10 18 -9 14 6 -4 11 3 7 20 -10 29 -32 36 -34 36 -13 0
8 5 15 10 15 6 0 10 -9 10 -21 0 -17 5 -20 37 -17 20 2 38 8 40 13 6 19 -59
59 -90 57 -16 -2 -35 2 -42 8 -10 8 -19 8 -33 -1 -14 -9 -27 -9 -50 -1 -17 6
-33 8 -36 5z"/>
<path d="M5120 1336 c0 -2 7 -9 15 -16 9 -7 15 -8 15 -2 0 5 -7 12 -15 16 -8
3 -15 4 -15 2z"/>
<path d="M8196 1333 c-5 -5 -28 -8 -54 -8 -27 0 -47 -5 -49 -13 -3 -7 1 -10 9
-7 8 3 23 -3 33 -15 16 -18 19 -18 30 -3 11 15 15 15 43 -5 35 -26 52 -28 52
-7 0 22 21 18 27 -5 5 -20 23 -28 23 -10 0 6 5 10 10 10 6 0 10 -9 10 -19 0
-11 9 -22 19 -26 11 -3 22 -12 25 -20 5 -15 28 -22 24 -7 -2 4 2 8 7 10 6 1
12 -12 15 -29 9 -58 30 -47 30 15 0 56 13 75 23 35 3 -12 10 -18 17 -14 6 4
18 1 27 -6 13 -11 17 -10 28 4 16 23 23 21 27 -5 2 -13 8 -23 13 -24 6 0 18
-4 28 -9 21 -9 22 -8 30 26 5 20 0 32 -23 54 -25 24 -32 26 -45 15 -13 -11
-22 -10 -51 6 -34 18 -37 18 -47 2 -10 -15 -13 -15 -40 4 -19 14 -37 18 -57
15 -20 -5 -30 -2 -34 10 -5 12 -14 14 -41 9 -24 -5 -42 -2 -57 9 -25 17 -41
19 -52 8z m185 -78 c-1 -15 -24 -12 -29 3 -3 9 2 13 12 10 10 -1 17 -7 17 -13z"/>
<path d="M3096 1261 c-4 -7 -5 -15 -2 -18 9 -9 19 4 14 18 -4 11 -6 11 -12 0z"/>
<path d="M8778 1253 c-12 -59 28 -94 89 -75 27 8 40 8 50 0 15 -12 18 -11 26
17 7 23 -8 46 -40 63 -24 13 -36 4 -22 -18 5 -8 9 -18 9 -22 0 -9 -77 29 -85
42 -10 16 -23 12 -27 -7z"/>
<path d="M8695 1250 c-3 -5 -2 -17 3 -27 19 -37 31 -69 34 -89 2 -15 8 -19 18
-15 25 10 6 105 -25 125 -14 9 -26 12 -30 6z"/>
<path d="M8980 1257 c0 -2 9 -22 20 -45 20 -41 33 -51 45 -33 8 14 -34 81 -51
81 -8 0 -14 -1 -14 -3z"/>
<path d="M9102 1240 c15 -24 43 -27 34 -4 -3 9 -6 18 -6 20 0 2 -9 4 -20 4
-18 0 -19 -2 -8 -20z"/>
<path d="M9170 1252 c0 -12 59 -44 70 -37 17 10 11 21 -15 33 -30 14 -55 16
-55 4z"/>
<path d="M9264 1247 c-2 -7 2 -27 11 -43 10 -19 15 -23 15 -11 0 9 5 17 11 17
6 0 9 -6 6 -13 -3 -7 1 -21 9 -32 10 -14 14 -15 15 -4 1 8 0 19 -1 24 -1 6 -3
17 -3 25 0 36 -52 66 -63 37z"/>
<path d="M7810 1235 c0 -17 2 -18 24 -9 18 7 12 24 -10 24 -8 0 -14 -7 -14
-15z"/>
<path d="M7867 1243 c-14 -13 -6 -23 19 -23 22 0 25 2 14 15 -14 16 -23 19
-33 8z"/>
<path d="M10177 1241 c-15 -5 -19 -19 -21 -60 -1 -33 3 -55 10 -58 7 -2 15
-16 19 -31 7 -28 32 -62 47 -62 16 0 9 147 -9 184 -19 38 -19 38 -46 27z"/>
<path d="M8070 1224 c-14 -7 -43 -14 -65 -14 -22 0 -47 -5 -55 -10 -16 -10
-13 -10 93 -12 51 -1 91 20 75 39 -12 15 -15 15 -48 -3z"/>
<path d="M8670 1211 c7 -13 7 -22 0 -26 -5 -3 -10 -16 -10 -28 0 -12 -9 -28
-21 -35 -16 -10 -18 -16 -9 -27 8 -10 8 -15 -1 -21 -8 -5 -3 -12 15 -21 14 -7
26 -20 26 -27 0 -12 20 -26 37 -26 3 0 3 11 1 25 -6 27 10 33 30 13 9 -9 12
-9 12 0 0 7 0 15 0 20 0 4 -8 7 -19 8 -30 2 -40 13 -41 47 0 60 -1 72 -6 95
-2 12 -9 22 -15 22 -6 0 -6 -6 1 -19z"/>
<path d="M7650 1200 c0 -5 5 -10 10 -10 6 0 10 5 10 10 0 6 -4 10 -10 10 -5 0
-10 -4 -10 -10z"/>
<path d="M2960 1191 c0 -5 5 -13 10 -16 6 -3 10 -2 10 4 0 5 -4 13 -10 16 -5
3 -10 2 -10 -4z"/>
<path d="M7810 1193 c0 -7 -7 -13 -15 -13 -8 0 -15 -3 -15 -7 1 -15 49 -67 56
-60 4 3 1 13 -5 21 -7 8 -10 20 -6 25 3 6 1 19 -4 28 -6 10 -11 12 -11 6z"/>
<path d="M7582 1178 c6 -18 28 -21 28 -4 0 9 -7 16 -16 16 -9 0 -14 -5 -12
-12z"/>
<path d="M3010 1165 c-7 -9 -10 -18 -7 -21 3 -3 10 4 17 15 13 25 8 27 -10 6z"/>
<path d="M7865 1160 c3 -5 8 -10 11 -10 2 0 4 5 4 10 0 6 -5 10 -11 10 -5 0
-7 -4 -4 -10z"/>
<path d="M8080 1146 c0 -38 11 -57 38 -67 28 -11 54 4 45 27 -4 11 -9 12 -19
3 -20 -16 -49 8 -33 27 13 16 4 34 -17 34 -8 0 -14 -10 -14 -24z"/>
<path d="M2950 1150 c0 -5 5 -10 10 -10 6 0 10 5 10 10 0 6 -4 10 -10 10 -5 0
-10 -4 -10 -10z"/>
<path d="M8950 1150 c-12 -7 -11 -10 5 -16 11 -4 24 -9 28 -12 5 -2 4 5 -2 17
-13 24 -12 23 -31 11z"/>
<path d="M8145 1140 c3 -5 8 -10 11 -10 2 0 4 5 4 10 0 6 -5 10 -11 10 -5 0
-7 -4 -4 -10z"/>
<path d="M8364 1108 c3 -13 6 -33 6 -45 0 -13 5 -23 11 -23 6 0 8 9 4 20 -8
24 20 39 38 21 17 -17 27 -13 27 10 0 15 -5 19 -18 15 -10 -4 -27 1 -38 9 -27
21 -37 18 -30 -7z"/>
<path d="M7772 1108 c-17 -17 -15 -38 3 -38 9 0 15 9 15 25 0 29 -1 30 -18 13z"/>
<path d="M7870 1110 c-13 -8 -12 -10 3 -10 9 0 17 5 17 10 0 12 -1 12 -20 0z"/>
<path d="M9320 1106 c0 -19 31 -30 41 -14 4 6 5 16 3 20 -9 14 -44 9 -44 -6z"/>
<path d="M9112 1098 c-17 -17 -15 -35 3 -42 19 -7 30 17 18 38 -7 13 -12 13
-21 4z"/>
<path d="M8960 1068 c0 -32 17 -46 26 -23 4 9 0 24 -10 33 -15 15 -16 14 -16
-10z"/>
<path d="M8816 1051 c-4 -7 -5 -15 -2 -18 9 -9 19 4 14 18 -4 11 -6 11 -12 0z"/>
<path d="M5587 1043 c-4 -3 -7 -11 -7 -17 0 -6 5 -5 12 2 6 6 9 14 7 17 -3 3
-9 2 -12 -2z"/>
<path d="M8325 1020 c-3 -5 1 -10 9 -10 9 0 16 5 16 10 0 6 -4 10 -9 10 -6 0
-13 -4 -16 -10z"/>
<path d="M8741 1001 c-7 -13 -6 -24 4 -37 13 -18 14 -16 15 19 0 41 -5 46 -19
18z"/>
<path d="M8820 990 c0 -5 7 -10 15 -10 8 0 15 5 15 10 0 6 -7 10 -15 10 -8 0
-15 -4 -15 -10z"/>
<path d="M8925 979 c-4 -6 -1 -15 6 -20 21 -13 31 -11 27 8 -4 20 -24 28 -33
12z"/>
<path d="M8885 916 c16 -13 34 -22 38 -19 14 8 -24 43 -47 43 -19 0 -18 -3 9
-24z"/>
<path d="M9238 910 c9 -16 22 -30 29 -30 6 0 18 -8 25 -18 7 -11 23 -24 36
-31 19 -10 22 -9 22 9 0 11 7 23 15 26 8 4 15 13 15 21 0 13 -8 14 -41 9 -34
-5 -45 -3 -71 19 -39 33 -51 32 -30 -5z"/>
<path d="M9390 851 c0 -5 9 -19 20 -32 15 -19 19 -21 20 -7 0 27 -11 48 -26
48 -8 0 -14 -4 -14 -9z"/>
<path d="M3922 760 c0 -14 2 -19 5 -12 2 6 2 18 0 25 -3 6 -5 1 -5 -13z"/>
<path d="M3966 609 c-11 -36 -13 -59 -6 -59 10 0 24 59 16 67 -3 3 -7 0 -10
-8z"/>
<path d="M4080 266 c0 -2 7 -7 16 -10 8 -3 12 -2 9 4 -6 10 -25 14 -25 6z"/>
<path d="M4101 214 c13 -14 25 -20 27 -14 5 15 -17 40 -36 40 -12 0 -10 -6 9
-26z"/>
<path d="M3960 168 c0 -9 4 -19 10 -23 5 -3 7 -12 3 -20 -3 -8 -1 -15 3 -15 5
-1 27 -16 49 -35 33 -28 36 -33 16 -28 -15 4 -28 1 -35 -9 -6 -8 -20 -18 -31
-23 -20 -8 -20 -8 0 -13 10 -2 21 1 23 7 2 6 10 11 18 11 9 0 12 -5 9 -10 -5
-7 19 -10 71 -8 60 2 79 7 88 20 8 14 7 20 -8 31 -12 9 -16 19 -11 27 6 9 4
11 -5 5 -9 -5 -10 -2 -6 12 5 17 2 20 -24 20 -31 0 -39 -14 -18 -35 9 -9 9
-15 0 -24 -9 -9 -13 -8 -18 5 -3 9 -31 35 -62 58 -32 24 -60 47 -64 53 -5 7
-8 4 -8 -6z"/>
<path d="M3948 63 c7 -3 16 -2 19 1 4 3 -2 6 -13 5 -11 0 -14 -3 -6 -6z"/>
<path d="M3985 60 c-3 -5 -1 -10 4 -10 6 0 11 5 11 10 0 6 -2 10 -4 10 -3 0
-8 -4 -11 -10z"/>
<path d="M1830 43 c0 -6 -3 -18 -6 -27 -4 -11 -1 -16 10 -16 9 0 16 6 16 13 0
16 -20 46 -20 30z"/>
<path d="M1943 33 c4 -3 2 -12 -4 -20 -9 -10 -8 -13 5 -13 9 0 16 8 16 20 0
11 -5 20 -12 20 -6 0 -8 -3 -5 -7z"/>
<path d="M3870 32 c0 -10 22 -32 32 -32 5 0 3 9 -4 20 -13 20 -28 27 -28 12z"/>
<path d="M1880 21 c0 -6 5 -13 10 -16 6 -3 10 1 10 9 0 9 -4 16 -10 16 -5 0
-10 -4 -10 -9z"/>
</g>
</svg>
